<?xml version="1.0" standalone="no"?>
<!DOCTYPE svg PUBLIC "-//W3C//DTD SVG 20010904//EN"
 "http://www.w3.org/TR/2001/REC-SVG-20010904/DTD/svg10.dtd">
<svg version="1.0" xmlns="http://www.w3.org/2000/svg"
 width="1226.000000pt" height="1226.000000pt" viewBox="0 0 1226.000000 1226.000000"
 preserveAspectRatio="xMidYMid meet">

<g transform="translate(0.000000,1226.000000) scale(0.100000,-0.100000)"
fill="#000000" stroke="none">
<path d="M5795 12088 c-411 -29 -646 -55 -695 -74 -8 -4 -42 -10 -75 -15 -33
-4 -85 -13 -115 -19 -30 -6 -77 -15 -105 -20 -27 -5 -75 -16 -105 -25 -30 -9
-71 -21 -90 -25 -19 -5 -53 -14 -75 -20 -22 -6 -56 -15 -75 -20 -19 -4 -64
-17 -100 -29 -36 -12 -81 -26 -100 -32 -41 -13 -166 -57 -195 -69 -11 -5 -54
-21 -95 -36 -233 -84 -489 -204 -800 -374 -231 -127 -568 -351 -799 -533 -236
-186 -624 -562 -812 -786 -101 -121 -144 -174 -174 -216 -16 -24 -50 -69 -75
-101 -197 -259 -507 -786 -625 -1064 -15 -36 -35 -83 -45 -105 -10 -22 -36
-87 -60 -145 -23 -58 -45 -114 -50 -125 -21 -50 -43 -113 -50 -140 -5 -16 -17
-55 -28 -85 -21 -61 -51 -154 -77 -245 -10 -33 -21 -71 -25 -85 -4 -14 -13
-52 -20 -85 -7 -33 -18 -78 -25 -100 -7 -22 -18 -67 -25 -100 -6 -33 -15 -74
-21 -91 -5 -17 -9 -47 -9 -68 0 -20 -4 -46 -10 -56 -10 -20 -25 -104 -41 -235
-5 -44 -14 -114 -19 -155 -5 -41 -14 -140 -19 -220 -6 -80 -15 -183 -21 -230
-13 -111 -13 -482 1 -590 6 -47 15 -143 20 -215 16 -224 58 -540 75 -567 3 -5
10 -33 15 -61 9 -60 20 -112 44 -212 9 -38 19 -85 22 -103 3 -18 10 -35 14
-38 5 -3 9 -18 9 -34 0 -16 4 -39 9 -52 4 -13 16 -48 24 -78 73 -253 160 -495
278 -770 49 -116 259 -521 338 -654 135 -226 285 -442 426 -615 33 -40 74 -91
90 -112 182 -231 586 -634 816 -814 21 -16 71 -56 111 -88 124 -98 170 -131
268 -198 105 -72 337 -219 344 -219 2 0 39 -20 81 -45 148 -88 473 -244 675
-325 58 -23 114 -45 125 -50 11 -4 36 -13 55 -20 19 -7 62 -22 95 -35 33 -13
114 -40 180 -60 66 -20 131 -41 145 -45 14 -4 45 -13 70 -20 25 -7 59 -17 75
-22 17 -6 49 -14 73 -19 23 -5 63 -14 90 -19 61 -14 122 -26 196 -40 33 -6 64
-13 69 -17 5 -3 39 -10 76 -15 36 -5 91 -13 121 -17 30 -5 100 -14 155 -20 55
-6 107 -14 115 -17 47 -18 334 -29 725 -28 422 0 636 10 715 34 19 5 55 10 79
10 25 0 72 5 105 11 34 6 84 14 111 19 46 8 201 39 300 60 22 5 60 14 85 20
25 6 63 15 85 20 60 13 113 27 143 38 15 5 47 15 72 22 81 23 195 61 212 70
10 6 24 10 31 10 18 0 341 127 477 187 159 71 411 201 566 293 351 207 517
324 835 585 216 178 564 528 702 705 15 19 47 60 72 90 55 67 210 270 248 325
109 157 203 301 280 430 90 150 248 452 301 575 16 36 42 97 58 135 17 39 34
79 39 90 17 39 51 131 65 175 8 25 19 54 24 65 16 32 80 237 80 254 0 9 7 25
15 35 8 11 15 32 15 47 0 15 5 31 10 34 6 3 10 21 10 39 0 17 4 36 8 42 5 5
14 34 21 64 15 68 39 165 52 206 5 17 9 41 9 54 0 12 4 39 9 59 15 59 40 183
47 231 20 147 25 184 34 265 6 50 14 149 20 220 5 72 14 168 20 215 13 109 13
390 0 500 -6 47 -15 139 -21 205 -15 174 -27 290 -39 375 -5 41 -14 105 -19
141 -4 37 -12 73 -17 80 -4 8 -12 39 -16 69 -17 114 -39 219 -73 345 -27 99
-37 139 -54 213 -4 20 -13 48 -19 62 -5 14 -15 45 -22 70 -7 25 -16 54 -20 65
-4 11 -13 38 -20 60 -7 22 -18 54 -25 70 -7 17 -23 59 -35 95 -12 36 -33 89
-46 118 -13 29 -24 56 -24 61 0 4 -14 39 -31 77 -209 465 -353 722 -629 1123
-118 171 -301 397 -462 570 -116 125 -442 443 -503 491 -18 14 -68 55 -111 91
-232 194 -530 401 -809 561 -116 67 -442 233 -535 273 -25 10 -81 34 -125 53
-44 19 -103 42 -132 52 -29 10 -67 25 -85 33 -64 29 -238 89 -353 122 -104 30
-129 37 -153 46 -13 5 -33 9 -44 9 -12 0 -35 4 -52 9 -80 25 -176 46 -311 71
-33 6 -79 15 -103 20 -23 6 -55 10 -70 10 -15 0 -56 6 -92 14 -106 24 -183 36
-233 36 -26 0 -66 4 -89 10 -106 24 -749 43 -953 28z m785 -547 c19 -6 78 -15
130 -22 273 -33 472 -63 489 -74 6 -3 35 -11 64 -16 101 -19 142 -28 182 -38
22 -6 58 -14 80 -19 139 -30 587 -180 740 -247 278 -122 336 -150 515 -248
163 -90 260 -149 403 -246 54 -36 108 -73 121 -81 22 -15 162 -122 280 -215
213 -167 545 -497 744 -738 158 -191 176 -216 335 -452 139 -208 241 -381 342
-585 42 -85 87 -177 101 -203 13 -27 24 -53 24 -58 0 -5 14 -38 30 -74 17 -36
30 -68 30 -71 0 -3 6 -20 14 -37 7 -18 19 -48 26 -67 7 -19 16 -44 20 -55 35
-84 121 -354 141 -440 6 -27 15 -59 19 -70 10 -27 30 -101 40 -150 4 -22 13
-65 20 -95 14 -64 26 -130 39 -217 5 -34 12 -67 17 -74 4 -7 11 -49 16 -93 22
-193 27 -238 40 -366 16 -170 16 -642 -1 -810 -26 -261 -36 -339 -56 -435 -8
-38 -19 -97 -25 -130 -26 -140 -47 -236 -73 -330 -10 -38 -21 -81 -24 -95 -2
-14 -8 -34 -13 -45 -4 -11 -16 -47 -25 -80 -18 -65 -53 -178 -65 -210 -12 -31
-60 -166 -72 -200 -6 -16 -19 -49 -29 -72 -11 -24 -19 -45 -19 -49 0 -25 -185
-412 -285 -594 -105 -192 -312 -506 -442 -671 -24 -30 -67 -85 -97 -124 -119
-155 -623 -659 -784 -783 -41 -31 -95 -74 -120 -94 -42 -33 -167 -125 -262
-191 -49 -34 -260 -166 -345 -215 -38 -22 -95 -54 -125 -72 -51 -29 -272 -138
-383 -189 -68 -30 -280 -114 -357 -141 -36 -12 -94 -32 -130 -45 -36 -12 -85
-28 -110 -35 -25 -7 -54 -16 -65 -20 -11 -5 -31 -11 -45 -14 -14 -3 -50 -12
-80 -21 -77 -23 -142 -39 -270 -64 -30 -6 -86 -18 -125 -26 -107 -23 -202 -37
-485 -70 -186 -22 -767 -32 -890 -16 -47 7 -139 16 -205 22 -66 6 -149 14
-185 19 -161 21 -208 28 -217 33 -5 3 -38 11 -74 17 -198 36 -293 57 -389 85
-30 10 -66 19 -80 22 -14 2 -34 8 -45 13 -11 4 -40 13 -65 20 -67 19 -133 41
-152 51 -10 5 -23 9 -30 9 -11 0 -152 50 -223 80 -11 4 -36 14 -55 21 -106 38
-411 183 -580 275 -202 110 -515 315 -690 452 -30 23 -82 63 -115 88 -171 130
-692 651 -822 823 -26 36 -62 83 -80 105 -112 142 -274 383 -365 541 -94 162
-110 193 -187 350 -96 195 -118 243 -165 365 -21 52 -43 109 -50 125 -16 36
-63 178 -101 300 -15 50 -31 101 -35 115 -8 25 -21 76 -40 148 -5 20 -16 62
-24 92 -8 30 -20 82 -26 115 -6 33 -16 76 -21 96 -5 20 -9 48 -9 63 0 14 -4
45 -10 68 -30 133 -37 181 -62 453 -16 177 -16 755 0 930 23 247 30 313 35
322 3 5 11 45 17 89 12 84 25 160 35 209 3 17 10 55 16 85 6 30 17 78 24 105
8 28 19 69 24 93 27 107 32 125 42 165 15 57 60 197 70 222 5 11 18 47 28 80
75 231 234 595 356 815 109 194 268 449 355 565 16 22 41 58 56 80 15 22 50
67 78 100 29 33 63 76 76 95 45 65 164 193 391 420 222 222 321 313 389 360
19 13 62 46 95 75 33 28 80 64 104 80 24 17 56 39 72 50 79 57 268 181 372
243 117 70 473 253 554 285 23 9 64 26 90 38 51 22 51 22 158 64 39 15 79 31
90 36 11 4 72 24 135 44 63 20 124 40 135 44 11 5 40 14 65 21 25 7 59 17 75
22 17 6 47 14 68 19 20 5 56 14 80 20 23 5 62 14 87 19 25 5 74 16 110 25 88
22 126 29 350 64 30 5 98 14 150 20 52 7 102 15 110 18 53 22 932 25 1010 4z"/>
<path d="M5725 11019 c-27 -4 -86 -13 -130 -19 -73 -10 -104 -15 -235 -39 -65
-12 -142 -32 -162 -42 -10 -5 -28 -9 -40 -9 -21 0 -60 -11 -123 -34 -16 -6
-32 -11 -35 -11 -7 0 -90 -25 -115 -35 -11 -4 -49 -17 -85 -30 -214 -73 -233
-81 -375 -152 -228 -114 -491 -280 -679 -428 -32 -25 -72 -56 -90 -70 -85 -67
-242 -209 -342 -312 -344 -351 -525 -630 -680 -1048 -15 -41 -31 -79 -36 -84
-4 -6 -8 -13 -8 -17 0 -7 124 -103 195 -151 22 -15 69 -50 105 -77 36 -28 71
-51 78 -51 7 0 12 14 12 37 0 20 4 50 9 67 5 17 15 51 21 76 20 74 66 191 115
290 47 97 51 100 101 76 16 -8 63 -28 104 -45 41 -18 83 -36 92 -41 10 -6 25
-10 33 -10 8 0 23 -4 33 -9 29 -16 202 -77 297 -105 50 -15 100 -31 113 -37
13 -5 34 -9 47 -9 13 0 26 -4 29 -9 3 -5 20 -11 38 -14 18 -2 66 -14 105 -26
40 -11 82 -21 94 -21 18 0 20 -4 16 -32 -4 -18 -10 -56 -14 -83 -5 -28 -12
-55 -16 -61 -34 -56 -101 -828 -74 -861 5 -7 39 -34 76 -60 117 -82 287 -211
300 -227 8 -9 22 -16 32 -16 19 0 19 8 13 203 -4 125 -1 253 6 337 6 74 15
178 19 231 4 52 11 100 15 107 3 6 11 44 17 84 6 40 15 98 20 128 5 30 13 78
17 105 8 56 -3 53 122 34 36 -5 97 -13 135 -17 39 -4 75 -10 82 -15 28 -18
519 -64 791 -73 l142 -5 0 -1124 0 -1123 63 -45 c34 -25 82 -63 106 -85 l45
-39 60 44 c34 23 82 62 109 85 l47 43 3 1120 2 1120 140 7 c306 14 760 57 788
75 6 4 45 10 87 15 76 7 164 21 211 33 23 6 26 3 36 -32 7 -21 17 -65 23 -98
6 -33 16 -78 21 -100 34 -130 66 -463 75 -792 5 -189 10 -243 20 -243 7 0 103
63 213 141 l201 141 -6 132 c-3 72 -10 169 -16 216 -5 47 -14 123 -18 170 -5
47 -14 119 -20 160 -6 41 -15 102 -20 135 -5 33 -16 89 -25 125 -9 36 -19 82
-22 103 -5 34 -3 37 20 37 15 0 36 4 49 9 13 4 48 16 78 25 168 49 251 75 305
96 11 4 38 13 60 20 125 39 239 83 382 149 62 28 119 51 128 51 14 0 75 -74
75 -92 0 -4 9 -30 21 -56 12 -26 25 -56 30 -67 4 -11 20 -58 34 -105 15 -47
30 -94 35 -105 4 -11 14 -47 21 -80 7 -33 15 -64 19 -68 4 -5 23 5 41 21 19
15 54 43 79 60 25 18 68 50 95 72 28 22 70 54 95 72 25 17 48 36 52 42 8 12 1
59 -17 106 -7 19 -23 62 -35 95 -122 334 -342 671 -635 973 -462 477 -1033
821 -1710 1029 -27 8 -59 19 -70 23 -11 5 -31 11 -45 14 -14 3 -54 12 -90 21
-142 34 -254 50 -615 85 -119 11 -639 11 -710 -1z m185 -1290 l0 -892 -112 7
c-62 4 -186 10 -274 15 -89 5 -167 12 -174 16 -7 4 -56 12 -109 16 -95 9 -159
17 -296 38 -179 27 -195 33 -177 67 15 29 30 67 35 89 8 32 67 198 77 217 6
10 10 25 10 33 0 8 4 23 10 33 5 9 16 35 25 57 87 210 227 449 344 585 116
135 313 350 321 350 4 0 49 37 98 83 162 147 197 176 210 177 9 0 12 -185 12
-891z m525 826 c33 -28 89 -74 125 -102 71 -56 308 -294 355 -358 16 -22 59
-76 95 -120 154 -188 271 -407 377 -705 25 -69 47 -134 50 -145 5 -19 8 -28
32 -88 13 -32 15 -77 4 -77 -5 -1 -28 -5 -53 -11 -89 -20 -248 -44 -392 -58
-47 -5 -92 -12 -98 -16 -16 -10 -306 -28 -460 -29 l-125 -1 -2 875 c-2 481 -1
881 2 888 6 17 15 11 90 -53z m920 -179 c17 -4 57 -19 90 -33 33 -14 83 -35
110 -47 242 -100 593 -304 760 -441 28 -22 68 -54 90 -70 70 -51 263 -246 326
-328 57 -74 59 -80 42 -94 -66 -53 -469 -206 -693 -263 -19 -4 -54 -13 -76
-19 -55 -15 -94 -14 -99 2 -2 6 -16 53 -31 102 -47 159 -91 284 -129 370 -53
119 -76 172 -83 185 -5 8 -33 60 -62 115 -90 169 -213 355 -327 494 -29 36
-53 68 -53 73 0 4 24 -3 53 -15 28 -13 66 -27 82 -31z m-2325 29 c0 -3 -21
-32 -47 -65 -248 -316 -398 -588 -560 -1015 -9 -22 -19 -49 -23 -60 -5 -11
-10 -29 -13 -40 -10 -41 -52 -150 -60 -156 -5 -4 -25 -2 -46 3 -20 5 -54 13
-76 18 -63 13 -299 80 -350 100 -11 4 -42 15 -70 25 -27 9 -59 20 -70 25 -11
4 -63 25 -115 45 -52 21 -103 46 -114 55 -18 18 -18 20 25 71 115 137 168 189
329 328 223 193 468 356 735 489 157 78 204 99 297 133 43 15 85 32 95 38 18
11 63 15 63 6z"/>
<path d="M1888 6072 l-3 -2697 53 -80 c29 -44 65 -96 80 -116 15 -20 42 -58
61 -85 19 -27 64 -83 100 -124 37 -41 82 -95 100 -120 50 -66 496 -514 566
-568 33 -25 96 -78 140 -117 44 -40 100 -86 125 -104 25 -17 65 -47 90 -66 25
-19 82 -60 127 -90 45 -31 85 -60 88 -65 4 -6 13 -10 21 -10 12 0 14 246 12
1885 -2 1037 1 1885 6 1885 4 0 34 -21 67 -47 66 -55 226 -179 281 -220 37
-28 312 -239 387 -298 85 -67 157 -122 208 -160 82 -61 294 -225 333 -257 32
-27 76 -61 205 -158 25 -19 81 -62 123 -95 42 -33 97 -75 122 -93 25 -18 64
-47 86 -65 135 -105 240 -186 282 -217 27 -19 69 -51 94 -70 25 -19 72 -55
104 -80 32 -24 83 -65 113 -90 30 -25 78 -63 107 -85 29 -22 77 -59 108 -83
37 -30 61 -42 73 -38 11 3 46 29 78 57 33 28 85 68 115 90 30 21 80 59 110 84
30 24 75 59 100 76 25 18 67 51 94 73 27 23 68 55 91 71 24 17 69 50 100 75
32 25 82 63 111 85 49 37 191 147 288 222 22 18 61 47 86 65 25 18 82 62 127
98 90 72 246 193 308 240 22 16 58 45 81 62 22 18 67 53 98 78 32 25 74 59 95
75 21 17 64 50 97 75 32 25 91 70 129 101 247 197 534 411 545 404 6 -4 9
-688 7 -1875 -1 -1029 1 -1870 6 -1870 4 0 29 16 55 35 97 73 218 161 247 179
17 11 59 45 95 76 36 31 85 71 110 90 178 136 493 449 663 658 21 26 66 80
100 121 34 41 73 91 87 111 14 20 62 92 108 159 l82 123 0 2653 c0 1459 3
2667 6 2684 9 45 -8 40 -98 -27 -43 -31 -90 -66 -105 -77 -25 -19 -157 -119
-332 -253 -80 -62 -100 -78 -212 -164 -203 -157 -335 -258 -447 -341 -68 -51
-156 -117 -195 -147 -40 -31 -91 -69 -113 -85 -23 -17 -103 -77 -178 -135 -75
-58 -160 -123 -190 -145 -29 -22 -79 -60 -111 -85 -31 -25 -76 -58 -99 -75
-23 -16 -77 -58 -121 -92 -106 -83 -124 -97 -225 -173 -48 -36 -149 -112 -225
-170 -75 -58 -154 -116 -174 -129 -20 -13 -64 -47 -97 -75 -54 -45 -125 -99
-284 -216 -27 -19 -92 -69 -145 -110 -110 -84 -146 -112 -225 -170 -30 -22
-91 -68 -136 -102 -128 -100 -236 -182 -260 -198 -35 -24 -176 -131 -212 -162
-18 -15 -39 -28 -46 -28 -13 0 -72 42 -281 199 -44 33 -102 77 -130 97 -27 21
-103 79 -169 128 -65 50 -140 107 -166 126 -100 74 -218 162 -285 215 -83 64
-221 168 -279 210 -23 17 -64 48 -91 70 -26 22 -67 54 -90 70 -24 17 -69 50
-100 75 -32 25 -80 61 -106 80 -27 19 -110 82 -185 140 -75 58 -158 121 -185
140 -26 19 -103 78 -171 130 -68 52 -145 110 -172 130 -26 19 -87 65 -135 102
-47 37 -103 79 -124 95 -20 15 -56 43 -80 62 -23 19 -58 44 -77 58 -19 13 -57
42 -85 64 -27 22 -99 78 -160 124 -218 166 -442 337 -554 423 -62 48 -153 116
-201 152 -48 36 -125 94 -171 129 -46 36 -121 93 -166 128 l-83 63 -2 -2698z"/>
<path d="M8242 4318 c-6 -7 -46 -39 -89 -71 -121 -90 -386 -289 -424 -318 -19
-14 -115 -86 -214 -159 -266 -198 -545 -405 -587 -437 -49 -36 -104 -77 -383
-283 -55 -40 -115 -85 -133 -99 -19 -14 -64 -48 -101 -76 -38 -27 -93 -69
-124 -92 -31 -24 -64 -43 -73 -43 -9 0 -68 39 -131 88 -63 48 -136 103 -163
122 -51 37 -170 127 -258 194 -84 64 -157 118 -288 214 -46 33 -152 113 -289
219 -27 21 -68 52 -91 68 -23 17 -103 77 -179 135 -75 58 -159 121 -185 140
-26 19 -118 89 -205 155 -86 66 -167 126 -179 134 -11 8 -47 37 -79 64 -32 27
-61 47 -64 44 -8 -9 -22 -902 -22 -1484 l-1 -511 29 -19 c25 -15 169 -119 286
-206 17 -12 71 -52 120 -88 155 -114 606 -450 684 -508 40 -31 85 -65 100 -75
14 -11 95 -72 180 -135 84 -64 165 -125 180 -135 14 -11 95 -72 180 -135 85
-64 172 -129 195 -146 22 -16 72 -53 110 -82 69 -53 90 -62 101 -43 3 5 41 35
83 67 42 31 101 75 130 97 29 23 74 57 101 76 26 19 81 60 122 91 41 31 157
117 259 193 197 146 309 230 418 312 37 28 85 64 108 80 39 27 177 130 289
215 28 21 65 48 83 61 382 272 537 390 536 406 -1 7 -2 455 -2 997 -1 557 -6
985 -11 985 -5 0 -13 -6 -19 -12z"/>
</g>
</svg>
