<?xml version="1.0" standalone="no"?>
<!DOCTYPE svg PUBLIC "-//W3C//DTD SVG 20010904//EN"
 "http://www.w3.org/TR/2001/REC-SVG-20010904/DTD/svg10.dtd">
<svg version="1.0" xmlns="http://www.w3.org/2000/svg"
 width="2500.000000pt" height="2500.000000pt" viewBox="0 0 2500.000000 2500.000000"
 preserveAspectRatio="xMidYMid meet">

<g transform="translate(0.000000,2500.000000) scale(0.100000,-0.100000)"
fill="#000000" stroke="none">
<path d="M12055 22650 c-38 -4 -113 -8 -165 -9 -52 -1 -122 -8 -155 -16 -33
-8 -87 -14 -119 -15 -33 0 -73 -4 -90 -9 -17 -6 -69 -15 -116 -21 -94 -12
-218 -36 -266 -51 -17 -5 -43 -9 -59 -9 -16 0 -42 -4 -59 -9 -17 -6 -58 -17
-91 -26 -144 -40 -249 -70 -405 -118 -19 -6 -39 -15 -44 -19 -6 -4 -18 -8 -28
-8 -9 0 -34 -7 -55 -16 -44 -19 -57 -24 -138 -54 -86 -31 -181 -69 -250 -100
-33 -15 -82 -37 -110 -50 -157 -70 -436 -217 -610 -321 -190 -113 -487 -319
-636 -439 -30 -25 -86 -70 -124 -100 -108 -88 -396 -363 -533 -511 -272 -291
-512 -614 -740 -994 -138 -231 -306 -569 -388 -782 -14 -38 -32 -81 -39 -98
-6 -16 -22 -57 -34 -90 -13 -33 -27 -68 -32 -77 -5 -10 -9 -23 -9 -30 0 -7
-11 -42 -24 -78 -13 -36 -33 -99 -46 -140 -12 -41 -33 -109 -46 -151 -13 -42
-24 -85 -24 -95 0 -9 -4 -31 -9 -48 -5 -17 -14 -49 -19 -71 -6 -22 -15 -60
-22 -85 -18 -68 -41 -191 -58 -312 -5 -36 -13 -71 -17 -77 -6 -11 -11 -44 -35
-256 -5 -44 -14 -145 -19 -225 -6 -80 -15 -183 -21 -230 -12 -106 -12 -468 1
-575 5 -44 14 -141 19 -215 6 -74 14 -169 19 -210 24 -195 30 -240 36 -250 4
-6 11 -37 16 -68 27 -159 35 -200 54 -267 8 -27 19 -77 25 -110 7 -33 16 -68
21 -77 5 -10 9 -28 9 -40 0 -12 5 -38 11 -57 26 -81 37 -118 49 -161 7 -25 26
-83 42 -130 16 -47 42 -123 58 -170 65 -191 158 -403 295 -675 188 -372 402
-707 620 -973 33 -41 69 -86 80 -102 58 -80 283 -325 431 -470 451 -440 899
-762 1444 -1035 203 -102 254 -126 450 -204 85 -34 163 -66 172 -72 10 -5 25
-9 33 -9 8 0 23 -4 33 -10 23 -13 341 -116 432 -140 25 -6 59 -16 76 -21 17
-5 40 -9 52 -9 12 0 30 -4 40 -9 16 -8 103 -28 227 -53 28 -5 66 -14 86 -19
20 -5 53 -9 73 -9 21 0 47 -5 59 -12 12 -6 55 -15 97 -20 41 -5 116 -13 165
-19 419 -49 1003 -57 1400 -19 186 18 412 47 426 55 5 4 38 11 72 17 34 5 83
14 110 19 26 5 68 13 95 18 26 5 74 17 107 26 33 9 78 20 100 25 22 5 56 13
75 19 19 5 51 14 70 19 65 18 344 110 395 131 11 5 52 21 90 36 998 385 1855
1014 2508 1841 126 159 378 517 423 599 6 11 44 74 83 140 71 115 231 422 280
535 62 144 94 217 101 235 20 52 43 112 50 130 9 21 42 115 64 180 8 22 24 74
36 115 12 41 28 90 36 108 8 18 14 41 14 52 0 10 4 21 9 24 5 3 11 23 14 43 3
21 10 56 17 78 7 22 14 58 17 80 3 22 9 45 14 51 8 10 20 58 40 164 4 25 13
70 19 100 55 295 71 417 90 670 5 69 13 172 19 230 13 134 13 327 0 455 -5 55
-14 154 -20 220 -20 245 -43 440 -53 465 -3 8 -11 47 -17 85 -35 222 -63 368
-76 388 -4 6 -10 29 -14 52 -5 22 -13 59 -18 83 -12 48 -25 96 -41 162 -6 25
-15 49 -21 55 -5 5 -9 18 -9 30 0 11 -13 56 -29 100 -15 44 -42 122 -60 173
-130 382 -421 955 -676 1329 -91 134 -221 309 -299 403 -25 30 -73 89 -105
131 -78 99 -529 549 -650 648 -305 249 -349 282 -603 452 -299 201 -675 400
-1015 538 -155 62 -301 117 -388 145 -44 14 -96 31 -115 38 -35 11 -76 22
-140 38 -19 4 -66 17 -105 28 -38 10 -97 25 -130 31 -33 7 -74 16 -91 22 -17
5 -45 9 -63 9 -18 0 -40 4 -50 10 -18 9 -89 23 -211 41 -36 5 -92 14 -125 19
-33 5 -101 13 -151 18 -49 5 -96 12 -104 17 -33 21 -838 41 -985 25z m812
-550 c22 -5 79 -14 125 -20 182 -23 235 -31 293 -39 33 -5 90 -14 127 -19 36
-5 72 -14 80 -18 7 -5 33 -12 58 -16 104 -17 152 -28 280 -63 74 -20 146 -39
160 -42 14 -2 34 -8 45 -13 11 -5 45 -16 75 -26 30 -9 64 -20 75 -24 11 -4 38
-13 60 -19 46 -14 265 -96 310 -116 17 -7 71 -31 121 -53 187 -83 429 -210
634 -335 72 -44 127 -80 284 -187 22 -15 165 -125 280 -215 116 -91 199 -168
411 -380 235 -235 402 -424 510 -579 17 -24 66 -94 110 -157 44 -62 89 -128
100 -146 11 -18 43 -70 71 -115 29 -46 61 -99 72 -118 11 -19 36 -64 57 -100
51 -90 215 -426 215 -443 0 -7 4 -17 9 -22 4 -6 25 -53 46 -105 20 -52 41
-104 45 -115 18 -44 61 -166 95 -270 36 -112 43 -136 64 -215 7 -25 18 -65 26
-90 21 -74 33 -122 45 -185 6 -33 15 -76 20 -95 5 -19 14 -66 21 -105 6 -38
16 -90 21 -115 11 -49 22 -127 36 -265 6 -49 15 -110 20 -135 15 -62 27 -291
26 -500 0 -191 -16 -479 -27 -497 -4 -7 -12 -54 -18 -105 -15 -141 -39 -294
-59 -383 -6 -27 -16 -75 -22 -105 -5 -30 -14 -65 -19 -78 -5 -13 -9 -33 -9
-44 0 -12 -4 -35 -9 -52 -5 -17 -17 -58 -26 -91 -10 -33 -21 -71 -25 -85 -4
-14 -13 -45 -20 -70 -20 -71 -40 -133 -49 -155 -5 -11 -18 -51 -30 -90 -12
-38 -29 -88 -38 -110 -8 -22 -19 -49 -23 -60 -5 -11 -24 -60 -43 -110 -80
-207 -225 -499 -364 -735 -87 -147 -267 -412 -358 -527 -22 -28 -60 -77 -85
-110 -148 -194 -630 -678 -815 -817 -29 -23 -79 -61 -111 -86 -167 -131 -422
-305 -559 -380 -33 -18 -105 -59 -160 -91 -113 -65 -450 -229 -470 -229 -3 0
-24 -8 -48 -19 -23 -10 -69 -29 -102 -41 -33 -12 -71 -26 -85 -32 -14 -5 -45
-17 -70 -25 -25 -8 -74 -25 -110 -37 -36 -13 -85 -29 -110 -36 -25 -7 -54 -16
-65 -20 -11 -5 -31 -11 -45 -13 -14 -3 -50 -13 -80 -22 -79 -24 -143 -39 -270
-64 -30 -6 -89 -18 -130 -27 -101 -22 -192 -35 -485 -69 -186 -22 -720 -31
-870 -15 -60 6 -159 16 -220 21 -169 15 -387 43 -402 52 -5 3 -38 11 -74 17
-198 36 -293 57 -389 85 -30 10 -66 19 -80 22 -14 2 -34 8 -45 13 -11 4 -40
13 -65 20 -67 19 -133 41 -152 51 -10 5 -23 9 -30 9 -12 0 -73 22 -268 97
-173 66 -506 227 -705 343 -123 70 -341 212 -425 275 -30 23 -90 68 -134 101
-239 180 -336 266 -596 530 -199 203 -271 284 -403 449 -242 305 -477 687
-637 1036 -34 74 -73 157 -86 186 -13 28 -24 57 -24 62 0 6 -8 30 -19 54 -10
23 -26 62 -36 87 -9 25 -21 54 -26 65 -4 11 -13 38 -20 60 -6 22 -15 49 -19
60 -33 92 -32 89 -59 188 -6 20 -15 52 -21 70 -39 132 -49 172 -70 277 -5 25
-17 77 -26 115 -36 156 -65 354 -83 590 -6 72 -15 154 -21 184 -13 69 -13 557
0 637 6 34 14 112 20 175 26 293 63 542 101 665 5 17 9 42 9 57 0 14 4 36 9
49 5 13 14 48 21 78 6 30 18 75 25 100 8 25 19 65 26 90 24 87 131 405 140
415 5 5 9 17 9 27 0 10 4 27 10 38 6 11 14 29 20 40 6 11 10 24 10 30 0 5 11
33 24 62 13 29 37 82 52 118 129 295 357 693 553 962 183 252 310 397 586 673
219 220 279 274 459 417 84 68 116 91 316 229 199 138 648 386 817 452 23 9
64 26 90 38 65 28 76 33 163 65 41 15 79 31 84 36 6 4 18 8 28 8 10 0 26 4 36
9 9 5 55 21 102 36 47 14 94 30 105 35 11 5 31 11 45 14 14 2 41 9 60 14 19 6
78 22 130 37 52 15 115 30 140 35 25 5 77 16 115 25 39 10 93 21 120 26 190
34 242 42 380 58 50 6 97 14 105 17 53 23 913 26 1007 4z"/>
<path d="M11995 21579 c-22 -4 -76 -13 -120 -19 -125 -17 -256 -42 -340 -65
-33 -9 -78 -20 -100 -24 -22 -5 -60 -15 -85 -24 -25 -9 -53 -17 -63 -17 -9 0
-25 -4 -35 -10 -9 -5 -66 -26 -127 -45 -94 -31 -167 -58 -260 -96 -237 -96
-637 -337 -839 -505 -34 -27 -78 -61 -98 -75 -66 -45 -374 -335 -450 -424
-256 -300 -413 -545 -507 -790 -12 -33 -30 -78 -38 -100 -9 -22 -19 -49 -23
-60 -34 -86 -34 -85 -14 -100 11 -8 52 -39 92 -68 40 -28 116 -85 169 -124 52
-40 100 -70 104 -67 5 3 9 21 9 41 0 20 5 54 11 77 6 22 15 59 21 81 6 22 16
54 23 70 7 17 18 46 25 65 22 59 87 194 103 215 14 19 18 18 153 -39 181 -76
260 -107 359 -137 22 -6 49 -15 60 -20 11 -4 47 -15 80 -25 33 -9 68 -20 77
-25 10 -5 25 -9 35 -9 9 0 30 -4 47 -9 145 -45 205 -61 224 -61 29 0 36 -19
21 -56 -6 -16 -15 -54 -20 -84 -19 -109 -30 -176 -38 -240 -4 -36 -10 -72 -14
-80 -3 -8 -8 -51 -11 -95 -3 -44 -9 -114 -15 -155 -8 -61 -15 -263 -12 -318 1
-7 20 -25 44 -40 42 -27 117 -82 271 -198 125 -94 115 -89 122 -70 3 9 2 85
-3 170 -9 158 0 407 17 484 6 23 10 73 10 111 0 39 5 82 11 97 5 16 15 60 20
99 6 38 15 97 21 130 5 33 13 80 16 105 8 50 -3 48 122 29 36 -5 97 -13 136
-17 38 -5 76 -12 82 -16 20 -12 210 -33 512 -56 74 -6 158 -13 185 -15 28 -3
91 -6 140 -8 l90 -2 3 -1123 2 -1122 47 -33 c25 -17 74 -56 109 -85 l62 -53
28 26 c15 14 30 25 34 25 4 0 39 28 79 63 l71 62 3 1120 2 1120 90 2 c50 1
117 5 150 8 33 4 121 11 195 16 74 5 173 13 220 18 47 6 124 14 172 20 48 5
92 12 98 16 6 4 48 11 93 16 159 18 172 20 196 32 19 10 25 8 37 -8 8 -11 17
-29 19 -40 18 -100 27 -147 37 -185 35 -144 65 -456 74 -788 4 -133 11 -245
15 -248 5 -3 28 9 51 26 83 62 254 181 316 222 48 32 61 46 56 60 -3 10 -9 93
-14 186 -11 196 -27 380 -35 392 -3 5 -11 45 -16 87 -19 145 -38 253 -58 331
-13 51 -10 58 26 65 16 3 53 12 83 21 30 9 69 21 85 26 31 9 83 24 138 39 33
9 146 47 182 62 11 4 61 22 110 39 50 17 159 60 243 97 151 65 153 65 173 47
25 -23 56 -83 94 -184 16 -41 32 -79 37 -84 4 -6 8 -19 8 -29 0 -11 9 -49 21
-86 35 -112 39 -127 39 -149 0 -37 17 -33 92 24 40 30 122 92 181 137 l109 81
-7 44 c-4 25 -10 52 -14 61 -5 9 -14 32 -21 51 -39 113 -58 159 -122 285 -38
77 -76 147 -84 156 -8 8 -14 18 -14 22 0 9 -86 139 -160 241 -90 123 -200 245
-386 425 -140 136 -194 182 -343 293 -189 140 -566 364 -708 421 -23 9 -64 26
-90 38 -82 37 -106 46 -173 68 -36 12 -73 26 -82 31 -10 6 -25 10 -33 10 -8 0
-23 4 -33 9 -28 15 -93 37 -172 61 -171 50 -224 62 -337 79 -350 52 -476 61
-823 60 -173 -1 -333 -5 -355 -10z m205 -1290 l0 -892 -107 7 c-60 4 -183 10
-274 15 -92 5 -172 12 -179 16 -7 4 -56 12 -109 16 -53 5 -127 13 -166 19 -38
6 -97 14 -130 19 -143 21 -187 33 -182 50 8 27 39 114 53 146 6 17 26 73 44
125 17 52 35 104 40 115 12 28 35 81 57 135 63 155 197 375 310 509 117 138
295 330 331 357 33 25 74 61 240 211 26 24 53 43 60 43 9 0 12 -185 12 -891z
m591 772 c126 -102 368 -343 429 -426 24 -33 65 -85 90 -115 100 -117 231
-343 308 -530 31 -76 100 -269 109 -305 5 -19 8 -28 32 -88 23 -58 16 -73 -41
-86 -89 -21 -247 -45 -396 -60 -56 -5 -107 -13 -113 -17 -15 -9 -304 -27 -449
-28 l-125 -1 -2 879 c-1 484 0 883 3 888 6 10 9 7 155 -111z m869 -131 c30
-10 71 -25 90 -33 19 -9 60 -26 90 -39 106 -44 366 -177 474 -243 287 -175
559 -404 708 -599 58 -75 60 -80 42 -93 -30 -23 -102 -57 -204 -97 -158 -63
-212 -82 -290 -106 -41 -13 -93 -28 -115 -35 -22 -7 -58 -18 -80 -23 -22 -6
-59 -15 -81 -21 -65 -17 -92 -14 -99 12 -29 101 -59 195 -66 212 -4 11 -15 40
-23 65 -8 25 -20 59 -26 75 -7 17 -16 39 -20 50 -43 111 -168 370 -230 475
-28 47 -58 92 -184 275 -12 17 -47 62 -78 102 -32 40 -58 74 -58 77 0 3 21 -4
48 -15 26 -12 72 -29 102 -39z m-2340 30 c0 -5 -4 -10 -8 -10 -5 0 -22 -19
-39 -42 -18 -24 -51 -68 -73 -98 -70 -92 -183 -269 -247 -385 -63 -114 -163
-320 -163 -336 0 -5 -4 -17 -9 -27 -22 -44 -63 -148 -91 -232 -10 -30 -28 -80
-39 -110 -12 -30 -21 -62 -21 -72 0 -22 -18 -27 -60 -16 -19 5 -53 13 -75 18
-35 8 -93 23 -190 50 -48 13 -138 41 -160 50 -11 5 -45 16 -75 26 -30 10 -59
22 -64 26 -6 4 -19 8 -31 8 -12 0 -25 4 -30 8 -6 5 -41 21 -80 37 -38 15 -78
36 -89 45 -17 17 -16 20 45 96 96 118 166 191 233 242 34 25 84 66 112 91 111
100 340 261 509 358 130 75 413 213 435 213 6 0 18 4 28 9 9 5 28 13 42 18 14
6 41 17 60 26 40 18 80 22 80 7z"/>
<path d="M8170 16629 l0 -2700 48 -72 c81 -122 174 -247 247 -331 39 -45 86
-101 104 -126 50 -67 476 -494 546 -548 33 -25 98 -80 145 -123 47 -42 101
-87 121 -100 20 -13 70 -49 110 -80 41 -30 97 -71 124 -89 28 -19 62 -45 77
-59 15 -13 30 -22 33 -19 7 7 6 3743 -1 3762 -14 37 29 9 260 -171 22 -18 61
-47 86 -64 25 -18 59 -44 75 -59 17 -16 64 -54 105 -85 41 -31 99 -75 129 -98
30 -23 78 -60 107 -82 29 -22 97 -74 150 -115 174 -135 186 -145 235 -180 26
-19 81 -62 122 -95 116 -92 225 -177 272 -210 23 -16 68 -50 100 -75 32 -25
91 -70 130 -100 40 -30 124 -95 189 -145 64 -49 129 -99 145 -111 31 -22 161
-122 220 -169 92 -73 156 -123 205 -160 29 -22 77 -59 105 -82 29 -24 58 -43
64 -43 16 0 50 23 143 98 44 34 99 77 122 95 24 17 60 46 80 63 21 17 57 45
82 62 25 17 83 61 130 98 47 36 136 105 199 152 147 112 167 128 237 183 33
25 100 76 149 114 50 37 121 93 160 124 38 31 88 70 111 86 23 17 67 50 99 75
56 45 79 62 191 150 31 25 78 61 104 80 45 34 139 108 294 232 43 35 100 79
126 98 26 19 73 55 104 80 32 25 81 63 111 85 29 22 90 68 134 103 45 34 86
62 91 62 6 0 10 -658 10 -1877 0 -1033 0 -1880 0 -1881 0 -2 13 7 29 20 16 12
68 50 116 83 114 80 218 158 284 214 30 25 75 62 101 81 48 36 169 144 298
265 81 76 316 332 372 405 19 25 55 70 81 100 50 59 63 77 192 265 l82 120 5
2680 c3 1474 1 2685 -3 2692 -8 11 -71 -32 -236 -160 -30 -23 -73 -55 -96 -72
-23 -16 -68 -50 -100 -75 -32 -25 -82 -63 -111 -85 -52 -39 -195 -150 -296
-230 -28 -22 -72 -56 -98 -75 -26 -19 -119 -89 -206 -155 -88 -66 -169 -127
-180 -135 -18 -13 -345 -260 -449 -340 -103 -79 -204 -156 -312 -240 -68 -52
-145 -111 -171 -130 -27 -19 -75 -55 -107 -80 -31 -25 -67 -52 -79 -60 -12 -8
-58 -43 -102 -77 -104 -82 -238 -182 -283 -212 -20 -13 -61 -45 -91 -71 -30
-25 -75 -61 -100 -78 -25 -18 -65 -48 -90 -67 -25 -19 -68 -52 -96 -72 -28
-21 -95 -72 -149 -113 -138 -105 -157 -120 -218 -165 -31 -22 -117 -87 -192
-145 -75 -58 -158 -121 -184 -140 -87 -64 -206 -154 -239 -182 -18 -15 -39
-28 -46 -28 -16 0 -59 31 -273 193 -113 86 -248 186 -298 222 -23 17 -64 48
-90 70 -27 22 -68 54 -91 70 -23 17 -69 51 -102 77 -33 25 -69 51 -79 57 -11
5 -52 36 -91 68 -73 61 -218 170 -281 213 -21 14 -62 46 -91 70 -29 25 -73 59
-96 75 -24 17 -76 55 -116 86 -40 30 -85 64 -99 75 -14 10 -52 39 -84 64 -32
25 -70 54 -85 65 -15 11 -61 45 -101 76 -41 30 -86 64 -100 75 -22 16 -335
254 -454 344 -264 201 -401 305 -501 382 -67 51 -175 133 -240 182 -65 49
-132 100 -149 113 -100 79 -144 112 -191 148 -30 22 -150 114 -269 205 -118
91 -237 180 -263 198 -26 19 -58 44 -73 58 -14 13 -28 24 -32 24 -4 0 -7
-1215 -7 -2701z"/>
<path d="M14525 14871 c-11 -10 -54 -44 -95 -74 -41 -31 -93 -70 -115 -87 -22
-16 -87 -65 -145 -108 -58 -42 -121 -89 -140 -104 -19 -15 -165 -124 -325
-243 -159 -118 -315 -235 -345 -259 -30 -23 -73 -55 -95 -70 -22 -14 -56 -39
-76 -54 -95 -72 -119 -89 -184 -137 -210 -154 -287 -212 -352 -262 -40 -31
-83 -63 -96 -72 -14 -9 -50 -35 -80 -58 -31 -24 -64 -43 -73 -43 -9 0 -68 39
-131 88 -63 48 -139 105 -170 127 -52 38 -76 56 -154 116 -114 87 -358 269
-394 294 -24 17 -132 98 -241 180 -108 83 -267 202 -353 267 -86 64 -194 146
-241 182 -77 59 -116 89 -200 151 -146 107 -210 158 -210 167 0 5 -6 8 -12 6
-16 -6 -15 0 -23 -473 -11 -654 -11 -1518 0 -1527 10 -8 78 -58 246 -178 96
-69 205 -149 333 -246 43 -32 88 -66 100 -74 20 -14 126 -92 210 -156 21 -16
55 -41 75 -56 20 -15 54 -40 76 -54 22 -15 67 -49 100 -75 33 -27 105 -82 160
-122 129 -94 124 -91 311 -232 87 -66 168 -127 180 -135 11 -8 95 -70 185
-137 l163 -123 26 23 c14 13 50 41 80 63 30 22 90 67 133 100 44 32 89 66 101
74 12 8 101 74 197 146 96 71 253 189 349 260 96 72 187 139 201 150 15 10 57
42 94 69 37 28 99 75 138 105 40 31 108 82 152 113 44 32 116 84 160 117 44
33 139 101 210 152 72 50 160 115 197 142 37 28 77 58 88 66 l21 15 0 1000
c-1 550 -4 1001 -9 1003 -4 1 -16 -6 -27 -17z"/>
<path d="M15497 9820 c-222 -28 -420 -91 -555 -176 -311 -198 -461 -476 -534
-989 -19 -130 -19 -2250 0 -2380 22 -153 53 -296 88 -403 177 -543 640 -807
1362 -778 282 11 462 49 639 136 279 137 446 354 537 696 48 185 58 277 63
617 l5 317 -500 0 -500 0 -4 -362 c-4 -300 -7 -375 -22 -434 -24 -99 -69 -171
-130 -209 -48 -29 -53 -30 -170 -30 -108 0 -126 3 -165 23 -84 45 -135 124
-168 259 -15 61 -17 191 -21 1293 -4 1277 -1 1382 38 1496 53 153 145 216 315
216 141 -1 217 -39 267 -137 47 -90 50 -121 55 -507 l5 -368 499 0 499 0 0
248 c0 275 -10 416 -41 572 -68 338 -202 558 -438 714 -124 83 -267 135 -466
172 -103 19 -544 28 -658 14z"/>
<path d="M18817 9820 c-222 -28 -420 -91 -555 -176 -311 -198 -461 -476 -534
-989 -19 -130 -19 -2250 0 -2380 22 -153 53 -296 88 -403 177 -543 640 -807
1362 -778 282 11 462 49 639 136 279 137 446 354 537 696 48 185 58 277 63
617 l5 317 -500 0 -500 0 -4 -362 c-4 -300 -7 -375 -22 -434 -24 -99 -69 -171
-130 -209 -48 -29 -53 -30 -170 -30 -108 0 -126 3 -165 23 -84 45 -135 124
-168 259 -15 61 -17 191 -21 1293 -4 1277 -1 1382 38 1496 53 153 145 216 315
216 141 -1 217 -39 267 -137 47 -90 50 -121 55 -507 l5 -368 499 0 499 0 0
248 c0 275 -10 416 -41 572 -68 338 -202 558 -438 714 -124 83 -267 135 -466
172 -103 19 -544 28 -658 14z"/>
<path d="M4640 9653 c0 -107 -64 -3942 -73 -4325 l-3 -168 366 0 367 0 6 208
c4 114 18 763 32 1442 14 679 28 1273 32 1320 6 84 10 64 287 -1440 l281
-1525 322 -3 321 -2 6 27 c3 16 121 687 261 1493 140 806 258 1478 263 1495 4
16 24 -584 45 -1360 21 -765 41 -1450 44 -1522 l6 -133 359 0 358 0 0 68 c1
166 -72 4443 -76 4490 l-5 52 -524 0 c-490 0 -524 -1 -529 -17 -2 -10 -125
-611 -272 -1335 -148 -724 -269 -1316 -270 -1315 -3 2 -504 2651 -504 2661 0
3 -247 6 -550 6 l-550 0 0 -117z"/>
<path d="M8580 9425 l0 -345 536 0 c430 0 535 -3 531 -13 -2 -7 -256 -748
-563 -1647 l-559 -1635 -3 -312 -3 -313 1076 0 1075 0 0 345 0 345 -579 2
-578 3 568 1664 569 1663 0 294 0 294 -1035 0 -1035 0 0 -345z"/>
<path d="M11927 9748 c-3 -13 -197 -1038 -431 -2278 -234 -1240 -429 -2267
-432 -2282 l-6 -28 481 0 481 0 5 23 c5 20 155 935 155 943 0 2 153 4 340 4
187 0 340 -2 340 -4 0 -3 34 -218 75 -479 41 -261 75 -478 75 -481 0 -3 212
-6 470 -6 259 0 470 3 470 8 0 4 -193 1040 -429 2302 l-428 2295 -580 3 -581
2 -5 -22z m713 -2114 c66 -483 120 -882 120 -886 0 -5 -111 -8 -246 -8 -229 0
-245 1 -241 18 3 9 58 409 123 889 65 480 120 871 121 869 2 -2 57 -398 123
-882z"/>
<path d="M6920 4429 c-217 -19 -360 -111 -440 -281 -64 -137 -72 -205 -77
-679 -5 -454 2 -608 37 -743 70 -273 253 -407 540 -394 69 4 109 11 145 27 55
24 127 89 153 136 l16 30 7 -35 c4 -19 10 -56 14 -82 l6 -48 150 0 149 0 0
530 0 530 -295 0 -295 0 0 -130 0 -130 91 0 91 0 -4 -182 c-3 -172 -5 -186
-28 -232 -36 -71 -67 -91 -143 -91 -76 1 -108 19 -139 83 l-23 47 0 610 c0
592 1 611 20 644 32 55 68 75 130 75 39 0 62 -5 82 -20 50 -37 58 -66 63 -234
l5 -155 220 0 220 0 -1 135 c-2 155 -18 241 -66 337 -38 77 -123 160 -203 198
-102 48 -262 68 -425 54z"/>
<path d="M11191 4429 c-223 -21 -374 -121 -445 -295 -55 -134 -58 -174 -63
-670 -5 -472 1 -616 33 -737 51 -201 168 -321 364 -374 91 -25 347 -25 440 0
235 63 355 219 390 507 5 46 10 283 10 525 0 242 -5 479 -10 525 -42 347 -208
503 -555 522 -44 3 -118 1 -164 -3z m192 -333 c10 -6 28 -27 40 -46 l22 -35 0
-630 c0 -615 0 -631 -20 -665 -12 -19 -36 -43 -55 -52 -71 -36 -157 -13 -195
52 -20 34 -20 50 -20 660 0 664 -2 631 43 698 25 37 136 48 185 18z"/>
<path d="M8760 3385 l0 -1025 465 0 466 0 -3 153 -3 152 -232 3 -233 2 -2 868
-3 867 -227 3 -228 2 0 -1025z"/>
<path d="M13050 3385 l0 -1025 359 0 c409 0 489 8 607 64 126 60 200 145 251
293 25 71 27 91 27 233 1 134 -2 165 -21 226 -41 128 -130 226 -238 260 -27 8
-57 18 -65 21 -9 3 4 11 32 21 106 38 181 118 216 232 24 76 23 272 -2 355
-25 85 -62 149 -116 199 -126 118 -272 146 -761 146 l-289 0 0 -1025z m644
703 c61 -19 120 -83 136 -148 18 -74 8 -189 -22 -248 -39 -78 -91 -101 -225
-102 l-73 0 0 255 0 255 71 0 c40 0 90 -6 113 -12z m49 -827 c86 -42 116 -114
117 -282 0 -121 -19 -186 -68 -238 -45 -47 -90 -61 -199 -61 l-83 0 0 306 0
306 93 -4 c70 -3 103 -9 140 -27z"/>
<path d="M15680 4408 c0 -2 -87 -462 -193 -1023 l-193 -1020 209 -3 c116 -1
212 -1 214 2 4 3 73 400 73 419 0 4 67 7 150 7 147 0 150 0 155 -22 3 -13 16
-95 30 -183 14 -88 27 -175 30 -192 l6 -33 211 0 c164 0 209 3 206 13 -3 6
-90 468 -194 1025 l-188 1012 -258 0 c-142 0 -258 -1 -258 -2z m364 -1310 l6
-38 -110 0 c-109 0 -110 0 -106 23 3 12 26 180 52 372 25 193 48 357 51 365 3
8 27 -142 54 -335 26 -192 50 -367 53 -387z"/>
<path d="M17650 3385 l0 -1025 465 0 466 0 -3 153 -3 152 -232 3 -233 2 -2
868 -3 867 -227 3 -228 2 0 -1025z"/>
</g>
</svg>
