<svg xmlns="http://www.w3.org/2000/svg" width="2500" height="2500" viewBox="0 0 2500 2500" version="1.1"><path d="M 1206.914 234.405 C 1206.592 234.735, 1199.167 235.465, 1190.414 236.028 C 1164.557 237.690, 1155.595 238.611, 1153.299 239.840 C 1152.107 240.478, 1149.666 241, 1147.876 241 C 1146.085 241, 1141.893 241.485, 1138.560 242.077 C 1135.227 242.670, 1130.025 243.588, 1127 244.118 C 1123.975 244.648, 1119.700 245.547, 1117.500 246.114 C 1115.300 246.682, 1111.475 247.535, 1109 248.011 C 1106.525 248.486, 1102.475 249.390, 1100 250.019 C 1097.525 250.648, 1093.810 251.399, 1091.744 251.687 C 1089.678 251.975, 1087.739 252.614, 1087.435 253.106 C 1087.131 253.598, 1085.964 254, 1084.842 254 C 1083.720 254, 1081.384 254.634, 1079.651 255.409 C 1077.918 256.184, 1075.263 257.084, 1073.750 257.409 C 1072.237 257.734, 1069.763 258.259, 1068.250 258.575 C 1066.737 258.892, 1064.600 259.529, 1063.500 259.992 C 1062.400 260.455, 1060.600 261.055, 1059.500 261.327 C 1056.741 262.008, 1034.182 269.865, 1030.500 271.427 C 1028.850 272.127, 1025.925 273.270, 1024 273.967 C 1022.075 274.664, 1019.150 275.811, 1017.500 276.516 C 1015.850 277.221, 1011.218 279.181, 1007.208 280.872 C 981.676 291.637, 948.030 308.967, 926.563 322.409 C 921.655 325.482, 899.985 339.690, 894.415 343.487 C 889.436 346.881, 869.764 361.757, 864.329 366.237 C 861.485 368.582, 856.580 372.525, 853.429 375 C 839.281 386.113, 796.257 428.877, 787.029 441 C 785.145 443.475, 782.005 447.332, 780.052 449.570 C 773.782 456.755, 761.712 472.360, 755.742 481 C 735.002 511.015, 723.179 530.630, 709.028 558.500 C 703.163 570.050, 696.882 583.100, 695.071 587.500 C 693.259 591.900, 690.903 597.525, 689.834 600 C 686.613 607.459, 686.250 608.361, 685 612 C 683.602 616.072, 683.111 617.329, 679.607 625.816 C 678.173 629.290, 677 632.976, 677 634.007 C 677 635.038, 676.602 636.128, 676.115 636.429 C 675.629 636.729, 674.991 638.219, 674.698 639.738 C 673.873 644.009, 672.369 648.984, 670.086 654.986 C 668.939 658.003, 668 661.416, 668 662.569 C 668 663.723, 667.678 664.988, 667.285 665.382 C 666.562 666.104, 664.891 671.750, 662.957 680 C 662.377 682.475, 661.450 686.300, 660.896 688.500 C 660.343 690.700, 659.494 694.300, 659.010 696.500 C 658.526 698.700, 657.392 703.650, 656.490 707.500 C 654.126 717.596, 651.425 733.638, 650.162 745.082 C 649.703 749.251, 648.999 753.193, 648.599 753.840 C 646.334 757.505, 643.522 804.551, 643.539 838.500 C 643.555 872.060, 646.219 914.310, 648.557 918.092 C 648.962 918.747, 649.680 922.482, 650.153 926.392 C 651.688 939.092, 653.678 950.228, 656.515 962 C 658.034 968.303, 658.974 972.387, 660.945 981.250 C 662.605 988.710, 663.798 993.358, 665.503 999 C 666.417 1002.025, 667.387 1005.625, 667.658 1007 C 667.929 1008.375, 668.505 1010.400, 668.938 1011.500 C 671.148 1017.116, 674.324 1026.823, 674.749 1029.262 C 675.014 1030.781, 675.629 1032.271, 676.115 1032.571 C 676.602 1032.872, 677 1034.126, 677 1035.359 C 677 1036.592, 677.395 1038.028, 677.877 1038.550 C 678.359 1039.073, 679.681 1042.234, 680.815 1045.575 C 683.780 1054.315, 685.885 1059.771, 688.608 1065.777 C 689.923 1068.680, 691 1071.498, 691 1072.041 C 691 1072.583, 691.439 1073.809, 691.976 1074.764 C 692.513 1075.719, 695.260 1081.450, 698.081 1087.500 C 707.262 1107.190, 709.320 1111.311, 716.804 1125 C 733.582 1155.689, 753.369 1185.677, 771.500 1207.895 C 774.800 1211.938, 778.625 1216.719, 780 1218.518 C 793.113 1235.677, 843.278 1285.844, 860.479 1299 C 862.277 1300.375, 867.517 1304.517, 872.124 1308.203 C 889.632 1322.215, 910.476 1336.536, 931.498 1348.999 C 944.006 1356.414, 979.162 1374.627, 991 1379.826 C 996.095 1382.063, 1002.531 1384.811, 1005.500 1386.016 C 1026.030 1394.347, 1032.537 1396.783, 1047 1401.556 C 1069.929 1409.123, 1072.818 1410, 1074.812 1410 C 1075.951 1410, 1077.160 1410.450, 1077.500 1411 C 1077.840 1411.550, 1079.072 1412, 1080.238 1412 C 1082.394 1412, 1084.488 1412.530, 1093.634 1415.393 C 1096.458 1416.277, 1100.144 1417, 1101.825 1417 C 1103.506 1417, 1105.160 1417.450, 1105.500 1418 C 1105.840 1418.550, 1107.747 1419, 1109.738 1419 C 1111.729 1419, 1114.740 1419.411, 1116.429 1419.913 C 1126.043 1422.771, 1141.556 1425.489, 1161.500 1427.809 C 1165.900 1428.320, 1173.100 1429.236, 1177.500 1429.843 C 1196.021 1432.398, 1215.785 1433.161, 1253 1432.756 C 1287.422 1432.382, 1313.515 1431.036, 1315.991 1429.506 C 1316.476 1429.206, 1321.064 1428.503, 1326.186 1427.944 C 1342.005 1426.217, 1353.077 1424.431, 1366 1421.523 C 1370.125 1420.595, 1375.075 1419.619, 1377 1419.356 C 1378.925 1419.092, 1381.400 1418.485, 1382.500 1418.006 C 1383.600 1417.528, 1385.850 1416.913, 1387.500 1416.641 C 1393.361 1415.673, 1407.527 1412.002, 1409.236 1411.009 C 1410.191 1410.454, 1411.675 1410, 1412.533 1410 C 1414.076 1410, 1434.636 1403.639, 1438.500 1401.967 C 1439.600 1401.490, 1442.525 1400.418, 1445 1399.583 C 1452.840 1396.940, 1458.406 1394.889, 1461.500 1393.503 C 1463.150 1392.764, 1468.775 1390.482, 1474 1388.431 C 1492.032 1381.356, 1528.166 1363.602, 1540.915 1355.554 C 1543.140 1354.149, 1545.159 1353, 1545.401 1353 C 1545.829 1353, 1558.955 1345.066, 1566 1340.548 C 1573.970 1335.437, 1592.812 1322.609, 1597 1319.442 C 1599.475 1317.571, 1603.525 1314.593, 1606 1312.825 C 1608.475 1311.057, 1614.775 1306.099, 1620 1301.807 C 1663.170 1266.343, 1700.583 1226.126, 1731.798 1181.627 C 1738.381 1172.242, 1754.526 1147.871, 1756.394 1144.500 C 1757.308 1142.850, 1760.127 1138.125, 1762.659 1134 C 1767.722 1125.751, 1785.647 1090.848, 1790.904 1079 C 1792.734 1074.875, 1795.091 1069.568, 1796.141 1067.207 C 1797.191 1064.847, 1798.756 1061.022, 1799.618 1058.707 C 1800.480 1056.393, 1801.540 1053.600, 1801.973 1052.500 C 1802.406 1051.400, 1803.543 1048.475, 1804.500 1046 C 1805.457 1043.525, 1806.606 1040.600, 1807.054 1039.500 C 1807.501 1038.400, 1808.410 1035.700, 1809.072 1033.500 C 1809.735 1031.300, 1810.613 1028.600, 1811.022 1027.500 C 1811.432 1026.400, 1812.587 1022.800, 1813.589 1019.500 C 1814.591 1016.200, 1815.768 1013.073, 1816.205 1012.550 C 1816.642 1012.028, 1817 1010.367, 1817 1008.859 C 1817 1007.351, 1817.396 1005.873, 1817.881 1005.574 C 1818.365 1005.274, 1818.991 1004.010, 1819.271 1002.765 C 1819.551 1001.519, 1821.001 996, 1822.493 990.500 C 1825.232 980.403, 1825.569 978.954, 1828.528 964.500 C 1829.428 960.100, 1830.661 954.925, 1831.267 953 C 1832.522 949.016, 1833.680 942.436, 1834.787 933 C 1835.206 929.425, 1835.896 925.947, 1836.321 925.271 C 1837.612 923.213, 1839.854 904.095, 1842.157 875.500 C 1843.731 855.959, 1843.780 811.282, 1842.247 793.500 C 1839.599 762.777, 1837.547 745.563, 1836.071 741.685 C 1835.482 740.137, 1835 737.331, 1835 735.449 C 1835 733.568, 1834.570 730.110, 1834.045 727.764 C 1833.520 725.419, 1832.358 719.900, 1831.464 715.500 C 1830.569 711.100, 1829.423 706.118, 1828.918 704.429 C 1828.413 702.740, 1828 699.954, 1828 698.238 C 1828 696.522, 1827.550 694.840, 1827 694.500 C 1826.450 694.160, 1826 692.580, 1826 690.988 C 1826 689.396, 1825.585 687.060, 1825.078 685.797 C 1824.572 684.534, 1822.956 678.775, 1821.488 673 C 1820.020 667.225, 1818.463 661.375, 1818.028 660 C 1817.592 658.625, 1816.416 654.800, 1815.413 651.500 C 1814.410 648.200, 1813.232 645.072, 1812.795 644.550 C 1812.358 644.027, 1812 642.655, 1812 641.500 C 1812 640.345, 1811.642 638.972, 1811.204 638.450 C 1810.766 637.928, 1809.829 635.700, 1809.122 633.500 C 1806.826 626.359, 1802.849 615.601, 1800.902 611.261 C 1799.856 608.929, 1799 606.786, 1799 606.497 C 1799 603.412, 1775.512 555.059, 1764.998 536.500 C 1756.896 522.198, 1756.744 521.935, 1754.864 519 C 1753.983 517.625, 1750.397 512, 1746.894 506.500 C 1741.300 497.715, 1731.096 483.177, 1720 468.183 C 1718.075 465.582, 1713.800 460.167, 1710.500 456.150 C 1707.200 452.133, 1702.349 446.068, 1699.721 442.673 C 1692.852 433.800, 1646.201 387.182, 1635.149 378.145 C 1604.688 353.241, 1598.965 348.952, 1574.383 332.599 C 1553.609 318.780, 1555.857 320.154, 1532.500 306.985 C 1527.051 303.913, 1495.283 288, 1494.599 288 C 1494.297 288, 1491.226 286.722, 1487.775 285.159 C 1484.324 283.597, 1477.225 280.614, 1472 278.531 C 1461.949 274.524, 1456.777 272.418, 1453.500 270.998 C 1452.400 270.521, 1448.575 269.172, 1445 268 C 1441.425 266.828, 1437.600 265.441, 1436.500 264.919 C 1433.493 263.492, 1426.675 261.463, 1413.820 258.172 C 1409.596 257.090, 1405.689 255.926, 1405.137 255.585 C 1404.585 255.244, 1401.966 254.497, 1399.317 253.924 C 1391.353 252.205, 1386.738 251.166, 1382 250.029 C 1379.525 249.434, 1375.025 248.605, 1371.999 248.187 C 1368.973 247.768, 1365.901 247.057, 1365.172 246.606 C 1364.443 246.156, 1360.843 245.346, 1357.173 244.807 C 1334.023 241.409, 1325.993 240.110, 1323.671 239.385 C 1321.420 238.684, 1308.165 237.169, 1293.500 235.939 C 1280.338 234.835, 1207.750 233.548, 1206.914 234.405 M 1215.754 288.579 C 1215.531 288.802, 1209.083 289.451, 1201.425 290.022 C 1193.766 290.593, 1183.900 291.481, 1179.500 291.994 C 1175.100 292.507, 1168.350 293.292, 1164.500 293.738 C 1160.650 294.184, 1156.956 294.891, 1156.291 295.308 C 1155.626 295.726, 1152.251 296.488, 1148.791 297.003 C 1140.693 298.207, 1129.299 300.333, 1116.500 303.027 C 1110.063 304.383, 1103.634 306.167, 1101.764 307.118 C 1100.809 307.603, 1099.265 308, 1098.335 308 C 1097.404 308, 1095.260 308.443, 1093.571 308.983 C 1091.882 309.524, 1086.450 311.139, 1081.500 312.572 C 1076.550 314.005, 1071.719 315.588, 1070.764 316.089 C 1069.809 316.590, 1068.340 317, 1067.500 317 C 1066.660 317, 1065.191 317.426, 1064.236 317.947 C 1063.281 318.467, 1059.766 319.789, 1056.425 320.885 C 1047.003 323.973, 1036.251 328.137, 1032.764 330.048 C 1031.809 330.572, 1030.601 331, 1030.080 331 C 1028.415 331, 1015.088 337.146, 993.537 347.852 C 968.524 360.278, 947.182 373.079, 923.677 389.754 C 921.930 390.993, 918.700 393.200, 916.500 394.658 C 914.300 396.116, 909.800 399.635, 906.500 402.477 C 903.200 405.319, 898.925 408.716, 897 410.025 C 890.188 414.658, 880.346 423.755, 858.551 445.565 C 835.578 468.552, 825.913 478.940, 820 486.999 C 818.075 489.623, 813.800 495.155, 810.500 499.293 C 790.213 524.729, 768.938 558.877, 752.940 591.681 C 749.673 598.381, 747 604.087, 747 604.362 C 747 604.636, 745.696 607.704, 744.101 611.180 C 738.053 624.368, 731.474 641.191, 728.335 651.500 C 727.498 654.250, 726.242 657.850, 725.545 659.500 C 724.848 661.150, 723.039 666.550, 721.527 671.500 C 720.014 676.450, 718.545 681.175, 718.263 682 C 717.980 682.825, 717.356 685.188, 716.875 687.250 C 715.386 693.634, 714.214 698.265, 712.511 704.500 C 710.177 713.048, 707.704 725.218, 706.081 736.150 C 705.619 739.258, 704.889 742.370, 704.458 743.067 C 703.700 744.294, 703.107 748.477, 700.995 767.500 C 698.155 793.076, 697.603 804.245, 697.612 836 C 697.618 855.448, 698.158 876.172, 698.850 883.500 C 701.286 909.302, 703.307 924.295, 704.891 928.315 C 705.501 929.863, 706 932.756, 706 934.744 C 706 936.732, 706.423 939.740, 706.940 941.429 C 707.457 943.118, 708.390 947.200, 709.014 950.500 C 710.224 956.894, 710.955 959.977, 713.522 969.500 C 714.412 972.800, 715.610 977.300, 716.186 979.500 C 716.761 981.700, 717.584 984.625, 718.013 986 C 718.443 987.375, 719.550 991.200, 720.474 994.500 C 721.397 997.800, 722.507 1001.400, 722.941 1002.500 C 723.374 1003.600, 725.198 1009, 726.993 1014.500 C 728.788 1020, 730.837 1025.850, 731.546 1027.500 C 732.256 1029.150, 734.449 1034.663, 736.421 1039.751 C 744.062 1059.468, 759.686 1091.117, 773.500 1114.861 C 780.279 1126.514, 798.677 1153.322, 808.301 1165.573 C 810.060 1167.812, 813.679 1172.537, 816.343 1176.073 C 828.889 1192.724, 880.816 1244.831, 897.297 1257.306 C 900.344 1259.613, 905.423 1263.525, 908.583 1266 C 922.792 1277.131, 950.776 1296.185, 964.173 1303.852 C 966.003 1304.899, 970.425 1307.428, 974 1309.472 C 981.994 1314.043, 1013.494 1329.742, 1021 1332.897 C 1024.025 1334.168, 1027.850 1335.791, 1029.500 1336.504 C 1031.150 1337.216, 1036.775 1339.470, 1042 1341.512 C 1047.225 1343.553, 1052.400 1345.592, 1053.500 1346.041 C 1054.600 1346.491, 1059.325 1348.077, 1064 1349.565 C 1068.675 1351.054, 1073.400 1352.610, 1074.500 1353.022 C 1075.600 1353.435, 1078.525 1354.320, 1081 1354.990 C 1083.475 1355.660, 1086.625 1356.674, 1088 1357.244 C 1089.375 1357.813, 1092.075 1358.637, 1094 1359.073 C 1095.925 1359.510, 1099.300 1360.381, 1101.500 1361.009 C 1103.700 1361.637, 1107.300 1362.541, 1109.500 1363.018 C 1111.700 1363.494, 1115.668 1364.352, 1118.317 1364.924 C 1120.966 1365.497, 1123.666 1366.300, 1124.317 1366.709 C 1124.968 1367.119, 1127.975 1367.782, 1131 1368.182 C 1134.025 1368.581, 1138.975 1369.377, 1142 1369.950 C 1151.020 1371.658, 1158.978 1372.872, 1168.349 1373.969 C 1173.216 1374.538, 1177.716 1375.328, 1178.349 1375.723 C 1184.040 1379.276, 1301.544 1379.222, 1310 1375.663 C 1310.825 1375.315, 1315.325 1374.556, 1320 1373.975 C 1331.365 1372.563, 1339.260 1371.368, 1346.500 1369.963 C 1349.800 1369.323, 1354.525 1368.434, 1357 1367.988 C 1361.418 1367.191, 1374.613 1364.006, 1382.500 1361.832 C 1384.700 1361.226, 1387.850 1360.380, 1389.500 1359.953 C 1393.987 1358.793, 1403.226 1355.942, 1405.500 1355.016 C 1406.600 1354.569, 1410.875 1353.231, 1415 1352.042 C 1421.686 1350.116, 1426.053 1348.593, 1432.500 1345.937 C 1433.600 1345.483, 1437.695 1343.996, 1441.600 1342.632 C 1445.505 1341.267, 1450.680 1339.263, 1453.100 1338.177 C 1455.520 1337.091, 1459.975 1335.156, 1463 1333.877 C 1469.735 1331.028, 1499.454 1316.190, 1507 1311.908 C 1534.242 1296.450, 1556.228 1281.935, 1575.781 1266.500 C 1578.568 1264.300, 1584.208 1259.910, 1588.314 1256.745 C 1603.216 1245.256, 1653.240 1195.226, 1665.385 1179.665 C 1668.748 1175.356, 1673.188 1169.731, 1675.250 1167.165 C 1677.313 1164.599, 1680.563 1160.250, 1682.474 1157.500 C 1684.385 1154.750, 1689.136 1148, 1693.031 1142.500 C 1712.507 1115.005, 1736.710 1069.591, 1749.523 1036.500 C 1751.014 1032.650, 1752.594 1028.600, 1753.035 1027.500 C 1753.476 1026.400, 1755.052 1022.125, 1756.537 1018 C 1758.022 1013.875, 1759.575 1009.600, 1759.989 1008.500 C 1760.843 1006.230, 1763.881 996.402, 1766.480 987.500 C 1767.444 984.200, 1768.596 980.600, 1769.041 979.500 C 1769.486 978.400, 1770.063 976.375, 1770.325 975 C 1770.587 973.625, 1771.573 969.800, 1772.518 966.500 C 1775.552 955.894, 1778.724 940.601, 1780.844 926.350 C 1781.347 922.967, 1782.095 919.655, 1782.507 918.988 C 1783.487 917.403, 1785.190 904.311, 1788.162 875.500 C 1788.843 868.900, 1789.396 850.900, 1789.390 835.500 C 1789.380 810.344, 1788.700 798.028, 1785.995 774 C 1785.531 769.875, 1784.741 762.863, 1784.239 758.418 C 1783.737 753.974, 1782.980 749.777, 1782.557 749.092 C 1782.133 748.407, 1781.381 745.068, 1780.884 741.673 C 1779.591 732.836, 1778.384 726.497, 1776.471 718.500 C 1775.550 714.650, 1774.655 710.600, 1774.483 709.500 C 1774.311 708.400, 1773.413 704.800, 1772.488 701.500 C 1771.563 698.200, 1770.448 693.925, 1770.008 692 C 1769.569 690.075, 1767.538 683.100, 1765.494 676.500 C 1763.451 669.900, 1761.552 663.257, 1761.274 661.738 C 1760.996 660.219, 1760.371 658.729, 1759.885 658.429 C 1759.398 658.128, 1759 657.189, 1759 656.342 C 1759 655.495, 1758.355 653.384, 1757.567 651.651 C 1756.780 649.918, 1755.439 646.375, 1754.589 643.778 C 1752.991 638.897, 1748.147 626.676, 1744.872 619.261 C 1743.843 616.929, 1743 614.825, 1743 614.584 C 1743 613.705, 1735.638 598.149, 1728.761 584.500 C 1721.480 570.046, 1704.114 540.487, 1696.168 529.023 C 1684.979 512.878, 1676.363 501.075, 1672.063 496 C 1669.499 492.975, 1666.318 488.925, 1664.993 487 C 1656.040 473.993, 1605.051 423.017, 1590.556 412.581 C 1588.325 410.975, 1584.025 407.546, 1581 404.962 C 1566.454 392.534, 1531.709 369.491, 1508 356.548 C 1500.132 352.253, 1480.172 342.376, 1472 338.735 C 1470.075 337.877, 1465.451 335.786, 1461.725 334.087 C 1457.999 332.389, 1454.509 331, 1453.970 331 C 1453.431 331, 1450.658 329.875, 1447.808 328.500 C 1444.958 327.125, 1441.885 326, 1440.980 326 C 1440.074 326, 1439.028 325.695, 1438.656 325.322 C 1438.032 324.699, 1432.383 322.607, 1421 318.785 C 1411.460 315.582, 1388.965 308.963, 1380.500 306.868 C 1378.300 306.324, 1374.250 305.249, 1371.500 304.481 C 1368.750 303.712, 1364.925 302.822, 1363 302.504 C 1361.075 302.185, 1357.250 301.474, 1354.500 300.923 C 1346.056 299.232, 1338.804 297.993, 1331.754 297.037 C 1328.043 296.534, 1324.554 295.842, 1323.999 295.499 C 1323.444 295.156, 1319.055 294.420, 1314.245 293.864 C 1309.435 293.307, 1302.125 292.440, 1298 291.938 C 1281.479 289.924, 1262.348 288.790, 1239.829 288.490 C 1226.810 288.317, 1215.977 288.357, 1215.754 288.579 M 686.746 2057.511 C 664.166 2061.799, 650.964 2074.932, 644.848 2099.189 C 642.532 2108.372, 642.500 2109.220, 642.500 2161 C 642.500 2217.297, 642.718 2220.331, 647.770 2234.500 C 655.734 2256.832, 671.285 2266.947, 697.712 2266.985 C 705.517 2266.997, 709.190 2266.527, 713.292 2264.992 C 719.513 2262.664, 725.865 2257.563, 729.179 2252.233 C 731.500 2248.500, 731.500 2248.500, 732.500 2256 C 733.500 2263.500, 733.500 2263.500, 748.750 2263.776 C 764 2264.052, 764 2264.052, 764 2210.511 L 764 2156.970 734.250 2157.235 C 704.500 2157.500, 704.500 2157.500, 704.500 2171 C 704.500 2184.500, 704.500 2184.500, 713.864 2184.789 C 723.229 2185.078, 723.229 2185.078, 722.729 2201.789 C 722.454 2210.980, 721.678 2220.290, 721.004 2222.477 C 720.331 2224.665, 718.083 2228.153, 716.008 2230.227 C 712.413 2233.822, 711.926 2234, 705.694 2234 C 700.157 2234, 698.693 2233.612, 696.149 2231.472 C 694.496 2230.081, 692.324 2226.818, 691.322 2224.222 C 689.633 2219.844, 689.500 2215.166, 689.500 2160 C 689.500 2100.500, 689.500 2100.500, 691.760 2096.271 C 694.474 2091.191, 698.313 2089, 704.500 2089 C 715.752 2089, 718.277 2093.540, 718.822 2114.750 C 719.214 2130, 719.214 2130, 741.741 2130 C 764.268 2130, 764.268 2130, 763.707 2114.750 C 763.360 2105.284, 762.520 2097.248, 761.494 2093.563 C 756.320 2074.988, 744.885 2063.550, 726.500 2058.560 C 717.896 2056.225, 696.493 2055.660, 686.746 2057.511 M 1116.500 2057.046 C 1092.871 2060.756, 1079.475 2072.919, 1072.711 2096.803 C 1070.587 2104.303, 1070.532 2105.956, 1070.532 2161.500 C 1070.532 2217.242, 1070.580 2218.672, 1072.737 2226.296 C 1078.583 2246.968, 1087.887 2257.623, 1105.500 2263.818 C 1115.151 2267.212, 1139.791 2268.122, 1151.673 2265.523 C 1173.028 2260.851, 1184.874 2249.166, 1191.233 2226.500 C 1193.439 2218.637, 1193.477 2217.525, 1193.477 2161.500 C 1193.477 2105.475, 1193.439 2104.363, 1191.233 2096.500 C 1187.945 2084.780, 1183.809 2077.054, 1177.766 2071.346 C 1166.705 2060.895, 1155.970 2057.125, 1135.500 2056.500 C 1128.350 2056.282, 1119.800 2056.528, 1116.500 2057.046 M 878 2161.500 L 878 2264 924.500 2264 C 971 2264, 971 2264, 971 2248.500 C 971 2233, 971 2233, 947.500 2233 L 924 2233 924 2146 L 924 2059 901 2059 L 878 2059 878 2161.500 M 1307 2161.500 L 1307 2264 1345.250 2263.993 C 1380.121 2263.987, 1384.242 2263.808, 1391.898 2261.973 C 1407.970 2258.120, 1419.065 2249.745, 1425.545 2236.576 C 1430.186 2227.143, 1431.962 2218.008, 1431.983 2203.460 C 1432.022 2176.242, 1423.218 2162.095, 1401.573 2154.595 C 1400.031 2154.060, 1400.832 2153.367, 1405.596 2151.114 C 1412.999 2147.613, 1420.067 2139.995, 1423.143 2132.202 C 1425.086 2127.280, 1425.401 2124.585, 1425.447 2112.500 C 1425.492 2100.735, 1425.147 2097.377, 1423.286 2091.463 C 1419.131 2078.259, 1409.736 2068.587, 1396.500 2063.889 C 1385.359 2059.936, 1374.655 2059.015, 1339.750 2059.007 L 1307 2059 1307 2161.500 M 1550.657 2159.256 C 1540.293 2214.390, 1531.582 2260.512, 1531.299 2261.750 C 1530.783 2264, 1530.783 2264, 1552.691 2264 C 1574.599 2264, 1574.599 2264, 1577.977 2242.500 C 1581.354 2221, 1581.354 2221, 1596.042 2221 C 1610.730 2221, 1610.730 2221, 1613.875 2240.750 C 1615.605 2251.613, 1617.016 2261.287, 1617.010 2262.250 C 1617.001 2263.863, 1618.690 2264, 1638.579 2264 C 1660.159 2264, 1660.159 2264, 1659.601 2261.250 C 1659.294 2259.738, 1651.148 2215.975, 1641.497 2164 C 1631.847 2112.025, 1623.480 2067.137, 1622.905 2064.250 C 1621.858 2059, 1621.858 2059, 1595.679 2059.006 L 1569.500 2059.012 1550.657 2159.256 M 1766 2161.500 L 1766 2264 1812.500 2264 C 1859 2264, 1859 2264, 1859 2248.500 C 1859 2233, 1859 2233, 1835.500 2233 L 1812 2233 1812 2146 L 1812 2059 1789 2059 L 1766 2059 1766 2161.500 M 1125.374 2089.931 C 1122.035 2091.364, 1119.048 2096.372, 1117.933 2102.407 C 1117.287 2105.900, 1117.018 2129.276, 1117.205 2165.722 C 1117.481 2219.778, 1117.620 2223.725, 1119.358 2227 C 1122.358 2232.651, 1124.688 2233.953, 1131.850 2233.978 C 1137.701 2233.998, 1138.457 2233.743, 1141.467 2230.733 C 1146.790 2225.410, 1147 2222.783, 1147 2161.500 C 1147 2101.840, 1146.720 2097.957, 1142.044 2092.723 C 1139.658 2090.053, 1138.523 2089.608, 1133.399 2089.334 C 1130.154 2089.161, 1126.543 2089.429, 1125.374 2089.931 M 1353 2115.648 C 1353 2141.296, 1353 2141.296, 1361.854 2140.722 C 1379.815 2139.559, 1385.222 2133.645, 1385.264 2115.114 C 1385.287 2105.198, 1383.901 2101.063, 1378.932 2096.225 C 1374.833 2092.233, 1367.796 2090, 1359.318 2090 C 1353 2090, 1353 2090, 1353 2115.648 M 1590.686 2156.250 C 1588.088 2175.637, 1585.970 2191.838, 1585.981 2192.250 C 1585.991 2192.662, 1590.500 2193, 1596 2193 C 1601.500 2193, 1606.010 2192.662, 1606.023 2192.250 C 1606.108 2189.475, 1596.481 2121, 1596.006 2121 C 1595.679 2121, 1593.285 2136.863, 1590.686 2156.250 M 1353 2201.357 C 1353 2232, 1353 2232, 1360.341 2232 C 1380.354 2232, 1387.526 2223.933, 1387.457 2201.500 C 1387.389 2179.561, 1381.792 2172.887, 1362.225 2171.409 C 1353 2170.713, 1353 2170.713, 1353 2201.357" stroke="none" fill="#0969d6" fill-rule="evenodd"/><path d="M 1196.500 342.150 C 1193.200 342.666, 1187.350 343.540, 1183.500 344.093 C 1179.650 344.646, 1174.250 345.732, 1171.500 346.507 C 1168.750 347.283, 1165.150 348.141, 1163.500 348.414 C 1161.850 348.687, 1158.362 349.381, 1155.750 349.955 C 1153.138 350.530, 1149.088 351.407, 1146.750 351.905 C 1140.287 353.281, 1134.608 355.083, 1133.550 356.093 C 1133.028 356.592, 1131.741 357, 1130.692 357 C 1128.589 357, 1108.529 363.451, 1105.764 365.017 C 1104.809 365.558, 1103.211 366, 1102.214 366 C 1101.216 366, 1099.973 366.376, 1099.450 366.835 C 1098.928 367.294, 1096.250 368.485, 1093.500 369.481 C 1082.871 373.332, 1071.704 378.785, 1053.500 389.012 C 1010.020 413.440, 964.095 452.246, 935.303 488.886 C 928.550 497.480, 916.349 515.618, 911.347 524.500 C 905.661 534.596, 898 550.497, 898 552.204 C 898 553.009, 897.692 553.975, 897.315 554.352 C 896.619 555.048, 895.142 558.876, 892.436 567 C 891.612 569.475, 890.501 572.281, 889.968 573.236 C 889.436 574.191, 889 575.346, 889 575.802 C 889 576.258, 893.058 579.526, 898.018 583.065 C 902.978 586.604, 911.415 592.759, 916.768 596.743 C 922.121 600.727, 926.950 603.842, 927.500 603.666 C 928.050 603.490, 928.615 601.806, 928.756 599.923 C 928.897 598.040, 929.497 594.700, 930.089 592.500 C 930.681 590.300, 931.626 586.700, 932.190 584.500 C 933.941 577.666, 938.909 565.087, 943.644 555.500 C 947.229 548.241, 948.687 546.510, 950.219 547.693 C 950.923 548.238, 953.393 549.418, 955.707 550.317 C 960.610 552.219, 968.739 555.761, 971.236 557.082 C 972.191 557.587, 973.789 558, 974.786 558 C 975.784 558, 977.028 558.393, 977.550 558.873 C 978.478 559.727, 1002.299 568.293, 1008.750 570.093 C 1014.036 571.568, 1018.163 572.761, 1024 574.500 C 1038.454 578.807, 1043.454 580.054, 1048.848 580.698 C 1053.115 581.207, 1053.184 581.275, 1052.565 584.358 C 1052.218 586.086, 1051.542 589.837, 1051.061 592.694 C 1050.581 595.550, 1049.866 598.407, 1049.473 599.043 C 1048.413 600.758, 1045.662 619.530, 1044.057 636 C 1040.859 668.818, 1040.116 682.761, 1041.451 684.920 C 1041.845 685.559, 1044.043 687.264, 1046.334 688.711 C 1052.103 692.352, 1065.678 702.271, 1075.221 709.817 C 1086.201 718.500, 1086.441 718.311, 1085.520 701.733 C 1084.617 685.469, 1084.749 674.944, 1086.044 660 C 1086.592 653.675, 1087.412 643.955, 1087.868 638.401 C 1088.323 632.847, 1088.998 627.813, 1089.367 627.215 C 1089.736 626.617, 1090.517 622.837, 1091.101 618.814 C 1091.685 614.791, 1092.601 609.025, 1093.136 606 C 1093.670 602.975, 1094.355 598.321, 1094.657 595.658 C 1095.205 590.816, 1095.205 590.816, 1098.853 591.514 C 1105.343 592.757, 1113.321 594.015, 1121.500 595.086 C 1125.900 595.661, 1132.650 596.545, 1136.500 597.050 C 1140.350 597.554, 1148 598.387, 1153.500 598.901 C 1159 599.414, 1164.175 600.087, 1165 600.395 C 1165.825 600.703, 1173.925 601.462, 1183 602.080 C 1192.075 602.699, 1200.625 603.313, 1202 603.446 C 1203.375 603.579, 1208.211 603.758, 1212.746 603.844 C 1220.991 604, 1220.991 604, 1221.246 716.174 C 1221.500 828.348, 1221.500 828.348, 1231.500 836.175 C 1237 840.480, 1242.017 844.257, 1242.649 844.569 C 1243.829 845.152, 1251.798 839.378, 1260.296 831.786 C 1265.093 827.500, 1265.093 827.500, 1265.051 715.850 C 1265.010 604.201, 1265.010 604.201, 1277.755 603.655 C 1300.970 602.660, 1320.797 601.244, 1322.012 600.492 C 1322.672 600.085, 1327.326 599.370, 1332.356 598.905 C 1337.385 598.439, 1345.325 597.563, 1350 596.958 C 1354.675 596.353, 1361.650 595.497, 1365.500 595.057 C 1375.921 593.864, 1385.376 592.007, 1386.450 590.942 C 1386.972 590.424, 1387.727 590, 1388.127 590 C 1389.164 590, 1392 595.960, 1392 598.139 C 1392 599.952, 1392.926 604.549, 1395.146 613.750 C 1398.774 628.790, 1401.669 659.634, 1402.615 693.336 C 1403.113 711.065, 1403.607 717.296, 1404.543 717.655 C 1405.662 718.084, 1414.944 711.996, 1430.346 700.730 C 1433.181 698.657, 1438.092 695.282, 1441.260 693.230 C 1447.020 689.500, 1447.020 689.500, 1446.446 674.500 C 1446.130 666.250, 1445.413 656.350, 1444.854 652.500 C 1444.295 648.650, 1443.384 641.225, 1442.830 636 C 1442.276 630.775, 1441.422 623.800, 1440.933 620.500 C 1438.497 604.089, 1438.036 601.131, 1437.196 596.500 C 1436.698 593.750, 1435.775 590.233, 1435.145 588.685 C 1434.515 587.137, 1434 584.774, 1434 583.435 C 1434 581.461, 1434.507 581, 1436.679 581 C 1438.152 581, 1440.740 580.580, 1442.429 580.068 C 1444.118 579.555, 1447.525 578.597, 1450 577.938 C 1454.715 576.684, 1462.098 574.335, 1465.500 573.008 C 1466.600 572.579, 1469.525 571.675, 1472 571 C 1474.475 570.325, 1477.400 569.412, 1478.500 568.971 C 1479.600 568.530, 1482.975 567.366, 1486 566.383 C 1489.025 565.400, 1491.928 564.237, 1492.450 563.798 C 1492.972 563.359, 1494.216 563, 1495.214 563 C 1496.211 563, 1497.809 562.581, 1498.764 562.068 C 1499.719 561.556, 1504.100 559.707, 1508.500 557.959 C 1512.900 556.211, 1518.975 553.657, 1522 552.284 C 1525.025 550.910, 1529.639 548.940, 1532.253 547.906 C 1537.007 546.027, 1537.007 546.027, 1540.003 550.163 C 1541.652 552.439, 1543 554.687, 1543 555.161 C 1543 555.634, 1543.945 558.154, 1545.100 560.761 C 1548.479 568.389, 1551.357 575.850, 1551.629 577.690 C 1551.876 579.356, 1553.970 586.101, 1554.986 588.500 C 1555.452 589.600, 1556.425 593.367, 1557.150 596.871 C 1557.874 600.375, 1558.974 603.437, 1559.595 603.675 C 1560.216 603.913, 1564.049 601.571, 1568.112 598.469 C 1572.175 595.367, 1580.373 589.193, 1586.330 584.747 C 1597.160 576.665, 1597.160 576.665, 1596.520 573.083 C 1595.722 568.609, 1591.025 554.828, 1589.863 553.550 C 1589.389 553.028, 1589 551.903, 1588.999 551.050 C 1588.998 548.640, 1576.946 524.664, 1569.870 512.995 C 1556.577 491.073, 1545.835 477.752, 1523.043 454.924 C 1511.194 443.057, 1498.125 430.825, 1494 427.742 C 1489.875 424.658, 1484.250 420.402, 1481.500 418.283 C 1460.743 402.287, 1422.732 380.657, 1398 370.767 C 1380.408 363.732, 1351.149 353.744, 1340.500 351.137 C 1338.300 350.599, 1334.648 349.673, 1332.384 349.079 C 1330.120 348.486, 1326.828 348, 1325.068 348 C 1323.308 348, 1321.047 347.560, 1320.043 347.023 C 1318.144 346.007, 1306.938 344.361, 1291.500 342.831 C 1278.711 341.563, 1203.692 341.026, 1196.500 342.150 M 1213.574 387.605 C 1209.765 390.847, 1202.850 396.988, 1198.206 401.250 C 1193.563 405.512, 1189.417 409, 1188.994 409 C 1188.289 409, 1173.478 425.226, 1158.404 442.510 C 1150.085 452.050, 1139.414 468.249, 1132.637 481.627 C 1129.537 487.747, 1127 493.021, 1127 493.347 C 1127 494.043, 1122.364 504.707, 1120.962 507.236 C 1120.433 508.191, 1120 509.660, 1120 510.500 C 1120 511.340, 1119.572 512.809, 1119.048 513.764 C 1118.002 515.672, 1112.083 532.309, 1111.314 535.500 C 1110.791 537.676, 1109.299 541.461, 1107.849 544.291 C 1107.345 545.276, 1107.170 546.466, 1107.460 546.935 C 1107.984 547.784, 1108.980 547.971, 1122.638 549.792 C 1126.564 550.316, 1130.353 551.100, 1131.057 551.535 C 1135.130 554.052, 1219.821 560.640, 1220.635 558.502 C 1220.844 557.951, 1220.900 517.947, 1220.758 469.605 C 1220.500 381.710, 1220.500 381.710, 1213.574 387.605 M 1265.055 471.075 C 1265.026 559.289, 1265.026 559.289, 1282.263 558.644 C 1311.416 557.553, 1344.853 554.144, 1362 550.515 C 1366.125 549.642, 1371.412 548.660, 1373.750 548.334 C 1377.360 547.829, 1378 547.390, 1378 545.417 C 1378 544.139, 1377.494 541.835, 1376.875 540.297 C 1375.015 535.669, 1373.720 531.975, 1369.408 519 C 1368.038 514.875, 1366.530 510.600, 1366.059 509.500 C 1365.588 508.400, 1364.627 505.925, 1363.925 504 C 1362.088 498.964, 1353.777 481.695, 1349.200 473.403 C 1344.028 464.033, 1337.780 454.766, 1332.074 448 C 1329.523 444.975, 1325.888 440.475, 1323.996 438 C 1317.308 429.250, 1307.362 418.677, 1295.917 408.152 C 1284.592 397.738, 1267.934 383.816, 1266.037 383.181 C 1265.438 382.980, 1265.073 415.646, 1265.055 471.075 M 1357.747 408.038 C 1375.944 431.268, 1390.671 455.083, 1400.397 477 C 1401.983 480.575, 1404.076 485.300, 1405.047 487.500 C 1407.198 492.371, 1413.453 509.184, 1414.906 514 C 1415.487 515.925, 1417.096 520.951, 1418.481 525.168 C 1419.867 529.385, 1421 533.518, 1421 534.351 C 1421 537.797, 1425.326 537.223, 1447.500 530.838 C 1456.072 528.369, 1472.587 522.892, 1474.236 521.970 C 1475.191 521.437, 1476.852 521, 1477.927 521 C 1479.002 521, 1480.129 520.600, 1480.432 520.111 C 1480.734 519.622, 1482.160 518.926, 1483.601 518.564 C 1488.098 517.435, 1503.690 510.163, 1507.348 507.487 C 1509.078 506.222, 1508.719 505.538, 1501.746 496.818 C 1493.603 486.634, 1478.838 471.969, 1469.669 464.958 C 1466.462 462.506, 1461.962 459.017, 1459.669 457.205 C 1453.416 452.264, 1434.684 439.942, 1424.500 434.072 C 1413.431 427.692, 1383.215 413, 1381.162 413 C 1380.729 413, 1378.042 411.875, 1375.192 410.500 C 1372.342 409.125, 1369.359 408, 1368.564 408 C 1367.769 408, 1366.872 407.602, 1366.571 407.115 C 1366.271 406.629, 1364.781 406.015, 1363.262 405.752 C 1361.743 405.489, 1358.811 404.531, 1356.747 403.623 C 1352.995 401.971, 1352.995 401.971, 1357.747 408.038 M 1126.762 404.908 C 1124.156 405.862, 1121.719 406.948, 1121.345 407.321 C 1120.972 407.695, 1119.911 408, 1118.987 408 C 1118.063 408, 1116.001 408.616, 1114.404 409.368 C 1112.807 410.121, 1108.575 412.023, 1105 413.596 C 1096.333 417.409, 1074.096 428.877, 1066 433.709 C 1052.652 441.677, 1049.600 443.650, 1041.154 449.776 C 1021.212 464.237, 1012.640 471.457, 997.542 486.507 C 984.375 499.631, 977.645 507.617, 978.536 509.059 C 979.795 511.096, 995.173 517.444, 1011.500 522.667 C 1015.900 524.075, 1020.400 525.578, 1021.500 526.007 C 1026.882 528.109, 1036.819 531.062, 1045 532.990 C 1046.925 533.443, 1051.015 534.531, 1054.088 535.407 C 1062.124 537.698, 1063.681 537.521, 1064.256 534.250 C 1065.083 529.547, 1074.599 503.772, 1080.127 491.261 C 1081.157 488.929, 1082 486.757, 1082 486.434 C 1082 485.158, 1096.507 456.948, 1101.765 448 C 1107.609 438.055, 1115.504 426.240, 1122.415 417.096 C 1131.868 404.592, 1132.983 403.004, 1132.260 403.087 C 1131.842 403.135, 1129.368 403.954, 1126.762 404.908 M 818 837.074 C 818 1107.148, 818 1107.148, 823.657 1115.324 C 832.864 1128.631, 845.318 1145.105, 850.627 1151 C 853.351 1154.025, 857.105 1158.525, 858.968 1161 C 864.003 1167.688, 905.568 1209.458, 912.500 1214.796 C 915.800 1217.337, 921.959 1222.533, 926.187 1226.342 C 930.415 1230.151, 936.137 1234.895, 938.903 1236.884 C 941.669 1238.873, 948.940 1244.100, 955.061 1248.500 C 961.182 1252.900, 967.669 1257.737, 969.477 1259.250 C 971.285 1260.763, 973.495 1262, 974.387 1262 C 975.881 1262, 975.990 1246.838, 975.755 1073.184 C 975.500 884.367, 975.500 884.367, 984 890.847 C 988.675 894.411, 995.639 899.840, 999.477 902.913 C 1003.314 905.986, 1008.587 910.075, 1011.195 912 C 1015.447 915.139, 1027.389 924.347, 1039.726 934 C 1042.186 935.925, 1046.616 939.300, 1049.571 941.500 C 1052.526 943.700, 1059.288 948.875, 1064.598 953 C 1081.688 966.276, 1083.210 967.443, 1088.054 971 C 1090.677 972.925, 1096.182 977.200, 1100.289 980.500 C 1108.338 986.969, 1130.051 1003.705, 1146.343 1016 C 1148.166 1017.375, 1151.692 1020.075, 1154.179 1022 C 1166.967 1031.896, 1182.696 1043.895, 1186.950 1047 C 1189.588 1048.925, 1194.342 1052.525, 1197.514 1055 C 1200.686 1057.475, 1204.456 1060.387, 1205.891 1061.471 C 1207.326 1062.555, 1211.875 1066.159, 1216 1069.478 C 1223.506 1075.519, 1231.306 1081.596, 1239.527 1087.810 C 1244.428 1091.514, 1245.696 1091.324, 1251.500 1086.017 C 1253.150 1084.508, 1258.266 1080.400, 1262.869 1076.887 C 1267.472 1073.374, 1273.097 1069.046, 1275.369 1067.270 C 1277.641 1065.493, 1281.525 1062.583, 1284 1060.801 C 1286.475 1059.020, 1291.925 1054.849, 1296.112 1051.531 C 1300.298 1048.214, 1308.796 1041.675, 1314.996 1037 C 1321.196 1032.325, 1328.120 1027.055, 1330.384 1025.289 C 1332.648 1023.523, 1336.300 1020.692, 1338.500 1018.998 C 1340.700 1017.304, 1346.100 1013.097, 1350.500 1009.649 C 1354.900 1006.201, 1361.157 1001.382, 1364.404 998.940 C 1367.652 996.498, 1372.152 993.046, 1374.404 991.270 C 1376.657 989.493, 1380.525 986.604, 1383 984.849 C 1385.475 983.095, 1389.116 980.273, 1391.091 978.579 C 1393.066 976.886, 1397.051 973.700, 1399.947 971.500 C 1402.842 969.300, 1408.876 964.555, 1413.356 960.956 C 1417.835 957.357, 1423.525 952.953, 1426 951.170 C 1428.475 949.386, 1432.572 946.256, 1435.105 944.213 C 1443.427 937.502, 1461.132 923.577, 1466.528 919.500 C 1469.439 917.300, 1474.364 913.475, 1477.472 911 C 1480.580 908.525, 1485.524 904.700, 1488.457 902.500 C 1491.390 900.300, 1497.100 895.972, 1501.145 892.882 C 1505.190 889.792, 1508.839 887.092, 1509.253 886.882 C 1509.667 886.672, 1510.023 970.987, 1510.044 1074.250 C 1510.071 1204.728, 1510.403 1262, 1511.133 1262 C 1511.711 1262, 1513.380 1261.063, 1514.842 1259.917 C 1516.304 1258.771, 1524.025 1253.142, 1532 1247.408 C 1539.975 1241.674, 1548.846 1235.074, 1551.712 1232.741 C 1554.579 1230.409, 1559.754 1226.285, 1563.212 1223.578 C 1566.671 1220.870, 1572.455 1215.920, 1576.068 1212.578 C 1579.680 1209.235, 1586.351 1203.177, 1590.893 1199.115 C 1599.680 1191.256, 1625.173 1163.682, 1633.500 1153.030 C 1636.250 1149.512, 1640.663 1143.903, 1643.307 1140.567 C 1645.950 1137.230, 1652.365 1128.200, 1657.561 1120.500 C 1667.009 1106.500, 1667.009 1106.500, 1667.026 837.500 C 1667.038 657.938, 1666.709 568.500, 1666.039 568.500 C 1665.486 568.500, 1664.014 569.266, 1662.767 570.202 C 1661.520 571.138, 1654.927 576.088, 1648.116 581.202 C 1641.305 586.316, 1634.501 591.400, 1632.996 592.500 C 1631.491 593.600, 1627.660 596.525, 1624.484 599 C 1621.308 601.475, 1616.296 605.300, 1613.346 607.500 C 1604.837 613.846, 1589.165 625.966, 1581 632.515 C 1576.875 635.824, 1572.536 639.199, 1571.358 640.015 C 1568.675 641.875, 1539.246 663.914, 1525.671 674.229 C 1520.077 678.481, 1513.542 683.431, 1511.148 685.229 C 1506.899 688.423, 1504.183 690.483, 1495 697.477 C 1492.525 699.362, 1484.501 705.538, 1477.169 711.202 C 1469.836 716.866, 1462.636 722.400, 1461.169 723.500 C 1459.701 724.600, 1454.675 728.445, 1450 732.045 C 1445.325 735.645, 1440.545 739.245, 1439.378 740.045 C 1438.210 740.845, 1434.666 743.525, 1431.501 746 C 1428.336 748.475, 1423.621 752.075, 1421.024 754 C 1418.426 755.925, 1411.893 760.875, 1406.505 765 C 1401.117 769.125, 1393.511 774.841, 1389.604 777.703 C 1385.697 780.565, 1379.869 785.065, 1376.654 787.703 C 1373.439 790.341, 1368.887 793.850, 1366.538 795.500 C 1361.385 799.121, 1350.926 806.956, 1332.497 821 C 1324.808 826.860, 1312.200 836.373, 1307.891 839.566 C 1306.456 840.630, 1302.685 843.525, 1299.511 846 C 1296.338 848.475, 1292.490 851.400, 1290.961 852.500 C 1288.180 854.501, 1251.659 882.270, 1247.062 885.879 C 1245.721 886.931, 1243.921 887.540, 1243.062 887.232 C 1242.203 886.923, 1234.583 881.457, 1226.129 875.085 C 1217.674 868.713, 1209.574 862.630, 1208.129 861.566 C 1206.683 860.503, 1202.192 857.128, 1198.149 854.066 C 1194.106 851.005, 1188.886 847.150, 1186.549 845.500 C 1184.211 843.850, 1180.112 840.700, 1177.438 838.500 C 1174.765 836.300, 1170.906 833.375, 1168.864 832 C 1166.821 830.625, 1159.032 824.775, 1151.554 819 C 1144.077 813.225, 1135.791 806.925, 1133.143 805 C 1130.494 803.075, 1125.723 799.475, 1122.540 797 C 1119.357 794.525, 1115.102 791.375, 1113.084 790 C 1111.066 788.625, 1105.979 784.800, 1101.780 781.500 C 1086.723 769.667, 1078.612 763.461, 1075.085 761.076 C 1073.113 759.743, 1069.250 756.778, 1066.500 754.487 C 1063.750 752.197, 1059.475 748.891, 1057 747.141 C 1054.525 745.392, 1050.475 742.403, 1048 740.500 C 1045.525 738.597, 1041.475 735.599, 1039 733.838 C 1036.525 732.078, 1032.250 728.768, 1029.500 726.484 C 1026.750 724.200, 1022.638 721.019, 1020.363 719.415 C 1015.488 715.980, 1002.886 706.518, 990.509 697 C 975.515 685.469, 966.922 678.903, 962.372 675.500 C 959.431 673.300, 949.969 666.100, 941.346 659.500 C 932.722 652.900, 919.480 642.775, 911.918 637 C 904.356 631.225, 892.030 621.775, 884.526 616 C 870.244 605.008, 861.625 598.498, 856.378 594.737 C 853.353 592.569, 846.015 586.915, 837.596 580.265 C 835.343 578.486, 830.940 575.225, 827.812 573.020 C 824.684 570.814, 821.845 568.558, 821.503 568.005 C 821.161 567.452, 820.234 567, 819.441 567 C 818.190 567, 818 602.591, 818 837.074 M 1445.475 1018.810 C 1439.961 1023.039, 1428.521 1031.675, 1420.053 1038 C 1400.975 1052.250, 1401.100 1052.157, 1392.141 1058.934 C 1388.093 1061.995, 1383.818 1065.155, 1382.641 1065.956 C 1381.463 1066.757, 1377.619 1069.682, 1374.097 1072.456 C 1370.576 1075.230, 1366.018 1078.625, 1363.970 1080 C 1360.433 1082.374, 1351.397 1089.075, 1337 1099.998 C 1333.425 1102.710, 1325.550 1108.553, 1319.500 1112.981 C 1313.450 1117.410, 1306.020 1122.977, 1302.989 1125.353 C 1299.958 1127.729, 1295.683 1130.874, 1293.489 1132.341 C 1291.295 1133.809, 1287.475 1136.576, 1285 1138.491 C 1282.525 1140.406, 1278.250 1143.544, 1275.500 1145.466 C 1270.788 1148.758, 1267.160 1151.501, 1250.677 1164.231 C 1246.924 1167.129, 1243.324 1169.617, 1242.677 1169.761 C 1240.956 1170.141, 1237.934 1168.004, 1210.498 1147 C 1202.954 1141.225, 1195.105 1135.375, 1193.055 1134 C 1191.005 1132.625, 1187.342 1129.865, 1184.914 1127.867 C 1182.486 1125.869, 1178.658 1122.944, 1176.406 1121.367 C 1169.853 1116.777, 1155.961 1106.439, 1150.095 1101.787 C 1147.122 1099.429, 1142.788 1096.150, 1140.464 1094.500 C 1138.140 1092.850, 1133.652 1089.475, 1130.492 1087 C 1127.332 1084.525, 1122.605 1080.925, 1119.989 1079 C 1109.730 1071.452, 1082.086 1050.585, 1074.556 1044.704 C 1070.187 1041.292, 1063.190 1036.025, 1059.008 1033 C 1049.894 1026.408, 1046.934 1024.130, 1038.548 1017.250 C 1035.028 1014.362, 1031.731 1012, 1031.222 1012 C 1029.461 1012, 1029.013 1028.902, 1028.343 1120.718 C 1027.685 1210.972, 1027.712 1212.952, 1029.585 1213.650 C 1030.638 1214.043, 1034.921 1216.870, 1039.101 1219.932 C 1043.282 1222.994, 1051.097 1228.650, 1056.469 1232.500 C 1061.841 1236.350, 1068.995 1241.682, 1072.368 1244.348 C 1075.741 1247.015, 1079.341 1249.647, 1080.368 1250.197 C 1081.396 1250.747, 1084.933 1253.290, 1088.229 1255.849 C 1091.525 1258.407, 1097.250 1262.750, 1100.952 1265.500 C 1104.655 1268.250, 1109.668 1271.984, 1112.092 1273.798 C 1114.516 1275.612, 1120.944 1280.337, 1126.376 1284.298 C 1131.807 1288.259, 1138.782 1293.557, 1141.876 1296.070 C 1144.969 1298.584, 1148.850 1301.505, 1150.500 1302.561 C 1152.150 1303.617, 1156.128 1306.511, 1159.340 1308.991 C 1162.551 1311.471, 1167.085 1314.850, 1169.414 1316.500 C 1171.743 1318.150, 1176.540 1321.770, 1180.074 1324.544 C 1183.608 1327.318, 1187.455 1330.243, 1188.623 1331.044 C 1190.734 1332.492, 1200.228 1339.579, 1215.500 1351.108 C 1236.804 1367.189, 1241.961 1371, 1242.421 1371 C 1242.905 1371, 1251.606 1364.609, 1269 1351.477 C 1273.675 1347.947, 1280.701 1342.684, 1284.614 1339.780 C 1288.527 1336.876, 1296.553 1330.900, 1302.450 1326.500 C 1313.319 1318.391, 1321.647 1312.212, 1328 1307.544 C 1329.925 1306.129, 1334.920 1302.326, 1339.100 1299.093 C 1343.279 1295.860, 1348.454 1292.046, 1350.600 1290.617 C 1352.745 1289.187, 1356.750 1286.212, 1359.500 1284.004 C 1362.250 1281.796, 1365.625 1279.223, 1367 1278.287 C 1368.375 1277.350, 1372.875 1274.058, 1377 1270.972 C 1395.362 1257.235, 1424.832 1235.641, 1431.221 1231.242 C 1433.024 1230.001, 1437.200 1226.951, 1440.500 1224.465 C 1443.800 1221.980, 1449.088 1218.141, 1452.250 1215.936 C 1455.412 1213.730, 1458.003 1211.492, 1458.007 1210.963 C 1458.011 1210.433, 1458.021 1165.338, 1458.028 1110.750 C 1458.038 1031.257, 1457.788 1011.462, 1456.770 1011.310 C 1456.072 1011.205, 1450.989 1014.580, 1445.475 1018.810 M 1557.238 1517.048 C 1509.117 1521.358, 1475.891 1541.388, 1458.073 1576.829 C 1451.304 1590.293, 1444.970 1614.109, 1441.937 1637.500 C 1440.317 1649.991, 1439.460 1825.183, 1440.892 1850.918 C 1443.820 1903.498, 1455.007 1935.179, 1478.765 1958.167 C 1495.770 1974.620, 1514.244 1983.404, 1543 1988.708 C 1556.350 1991.170, 1601.154 1991.198, 1615.012 1988.752 C 1644.652 1983.521, 1663.562 1973.933, 1681 1955.295 C 1692.195 1943.330, 1698.902 1930.829, 1704.496 1911.500 C 1710.155 1891.952, 1711.135 1883.144, 1711.703 1846.750 L 1712.230 1813 1662.115 1813 L 1612 1813 1611.990 1839.750 C 1611.969 1893.179, 1608.530 1907.971, 1594.493 1915 C 1590.117 1917.191, 1588.202 1917.500, 1579 1917.500 C 1570.040 1917.500, 1567.810 1917.160, 1563.794 1915.182 C 1554.874 1910.789, 1549.250 1901.853, 1546.311 1887.404 C 1544.620 1879.091, 1544.500 1870.209, 1544.500 1753.500 C 1544.500 1621.375, 1544.522 1620.699, 1549.136 1608.367 C 1552.265 1600.002, 1559.739 1592.680, 1567.402 1590.471 C 1575.980 1587.998, 1589.088 1588.752, 1595.628 1592.094 C 1601.330 1595.008, 1606.254 1601.617, 1608.503 1609.376 C 1610.782 1617.237, 1611.967 1635.918, 1611.984 1664.250 L 1612 1690 1662 1690 L 1712 1690 1712 1663.606 C 1712 1625.245, 1709.756 1607.795, 1701.986 1585.720 C 1696.139 1569.110, 1691.163 1561.160, 1679.001 1549 C 1661.326 1531.327, 1643.542 1523.072, 1613.220 1518.465 C 1600.983 1516.606, 1570.725 1515.840, 1557.238 1517.048 M 1888.238 1517.048 C 1840.117 1521.358, 1806.891 1541.388, 1789.073 1576.829 C 1782.304 1590.293, 1775.970 1614.109, 1772.937 1637.500 C 1771.317 1649.991, 1770.460 1825.183, 1771.892 1850.918 C 1774.820 1903.498, 1786.007 1935.179, 1809.765 1958.167 C 1826.770 1974.620, 1845.244 1983.404, 1874 1988.708 C 1887.350 1991.170, 1932.154 1991.198, 1946.012 1988.752 C 1975.652 1983.521, 1994.562 1973.933, 2012 1955.295 C 2023.195 1943.330, 2029.902 1930.829, 2035.496 1911.500 C 2041.155 1891.952, 2042.135 1883.144, 2042.703 1846.750 L 2043.230 1813 1993.115 1813 L 1943 1813 1942.990 1839.750 C 1942.969 1893.179, 1939.530 1907.971, 1925.493 1915 C 1921.117 1917.191, 1919.202 1917.500, 1910 1917.500 C 1901.040 1917.500, 1898.810 1917.160, 1894.794 1915.182 C 1885.874 1910.789, 1880.250 1901.853, 1877.311 1887.404 C 1875.620 1879.091, 1875.500 1870.209, 1875.500 1753.500 C 1875.500 1621.375, 1875.522 1620.699, 1880.136 1608.367 C 1883.265 1600.002, 1890.739 1592.680, 1898.402 1590.471 C 1906.980 1587.998, 1920.088 1588.752, 1926.628 1592.094 C 1932.330 1595.008, 1937.254 1601.617, 1939.503 1609.376 C 1941.782 1617.237, 1942.967 1635.918, 1942.984 1664.250 L 1943 1690 1993 1690 L 2043 1690 2043 1663.606 C 2043 1625.245, 2040.756 1607.795, 2032.986 1585.720 C 2027.139 1569.110, 2022.163 1561.160, 2010.001 1549 C 1992.326 1531.327, 1974.542 1523.072, 1944.220 1518.465 C 1931.983 1516.606, 1901.725 1515.840, 1888.238 1517.048 M 466.544 1522.929 C 466.141 1523.582, 458.088 1956.395, 458.007 1981.750 C 458 1984, 458 1984, 495 1984 C 515.350 1984, 532.028 1983.888, 532.061 1983.750 C 532.095 1983.612, 533.654 1915.828, 535.526 1833.119 C 537.398 1750.409, 539.066 1682.600, 539.234 1682.432 C 539.402 1682.265, 551.832 1749.036, 566.855 1830.814 C 581.879 1912.591, 594.408 1980.519, 594.697 1981.764 C 595.224 1984.027, 595.224 1984.027, 627.795 1983.764 L 660.367 1983.500 686.433 1833.835 C 700.770 1751.520, 712.621 1684.291, 712.770 1684.438 C 713.098 1684.764, 720.984 1964.113, 720.993 1975.750 C 721 1984, 721 1984, 757.757 1984 C 794.515 1984, 794.515 1984, 794.275 1976.250 C 794.142 1971.987, 792.407 1868.600, 790.418 1746.500 C 788.429 1624.400, 786.634 1523.934, 786.429 1523.241 C 786.134 1522.246, 775.015 1522.036, 733.287 1522.241 L 680.518 1522.500 653.509 1655.291 C 633.632 1753.015, 626.300 1787.344, 625.742 1785.291 C 625.325 1783.756, 614.164 1724.900, 600.940 1654.500 C 587.716 1584.100, 576.480 1525.487, 575.970 1524.250 C 575.043 1522, 575.043 1522, 521.080 1522 C 488.926 1522, 466.886 1522.376, 466.544 1522.929 M 858.671 1522.662 C 858.302 1523.031, 858 1538.783, 858 1557.667 L 858 1592 911.500 1592 C 942.427 1592, 965 1592.379, 965 1592.897 C 965 1593.391, 939.800 1667.780, 909 1758.206 C 853 1922.617, 853 1922.617, 853 1953.309 L 853 1984 960.500 1984 L 1068 1984 1068 1949.500 L 1068 1915 1010.500 1915 C 978.875 1915, 953 1914.617, 953 1914.150 C 953 1913.682, 978.657 1838.216, 1010.015 1746.447 C 1067.030 1579.595, 1067.030 1579.595, 1066.765 1551.048 L 1066.500 1522.500 962.921 1522.245 C 905.953 1522.105, 859.041 1522.293, 858.671 1522.662 M 1193.531 1523.242 C 1192.893 1525.190, 1106.990 1981.336, 1106.995 1982.750 C 1106.999 1983.733, 1117.325 1984, 1155.281 1984 L 1203.562 1984 1211.487 1935.487 L 1219.411 1886.974 1252.927 1887.237 L 1286.444 1887.500 1294 1935.500 L 1301.557 1983.500 1348.893 1983.760 C 1396.230 1984.020, 1396.230 1984.020, 1395.556 1979.760 C 1395.185 1977.417, 1375.877 1873.575, 1352.648 1749 L 1310.414 1522.500 1252.179 1522.242 C 1206.094 1522.038, 1193.857 1522.246, 1193.531 1523.242 M 1240.708 1736.717 C 1234.234 1784.448, 1228.952 1823.838, 1228.969 1824.250 C 1228.986 1824.662, 1239.575 1825, 1252.500 1825 C 1274.781 1825, 1276 1824.903, 1276 1823.132 C 1276 1821.266, 1253.169 1652.200, 1252.717 1650.717 C 1252.586 1650.287, 1247.182 1688.987, 1240.708 1736.717" stroke="none" fill="#043c7f" fill-rule="evenodd"/></svg>