<svg xmlns="http://www.w3.org/2000/svg" width="1226" height="1226" viewBox="0 0 1226 1226" version="1.1"><path d="M 575.500 17.498 C 574.950 17.745, 567.525 18.425, 559 19.010 C 533.239 20.778, 525.565 21.527, 524.138 22.412 C 523.389 22.876, 519.789 23.631, 516.138 24.089 C 512.487 24.547, 506.575 25.394, 503 25.971 C 496.902 26.954, 494.609 27.367, 481.228 29.892 C 478.328 30.439, 474.503 31.331, 472.728 31.875 C 469.734 32.793, 466.986 33.521, 456.500 36.179 C 454.300 36.736, 451.022 37.824, 449.216 38.596 C 447.410 39.368, 445.069 40, 444.013 40 C 442.958 40, 441.060 40.403, 439.797 40.896 C 438.534 41.389, 435.475 42.340, 433 43.010 C 430.525 43.680, 427.600 44.611, 426.500 45.079 C 425.400 45.548, 421.800 46.822, 418.500 47.911 C 412.994 49.728, 409.069 51.157, 389.872 58.329 C 382.075 61.242, 358.690 71.622, 348 76.916 C 306.565 97.434, 268.045 121.733, 236.901 147 C 232.494 150.575, 226.051 155.750, 222.583 158.500 C 205.434 172.097, 167.651 210.583, 149.856 232.579 C 134.032 252.139, 128.696 259.426, 112.926 283 C 93.381 312.220, 72.769 351.403, 59.534 384.500 C 57.994 388.350, 56.185 392.850, 55.514 394.500 C 54.842 396.150, 53.291 400.200, 52.067 403.500 C 50.842 406.800, 49.426 410.281, 48.920 411.236 C 48.414 412.191, 48 413.532, 48 414.215 C 48 414.899, 46.927 418.392, 45.615 421.979 C 44.304 425.565, 42.269 431.875, 41.093 436 C 39.917 440.125, 38.343 445.525, 37.595 448 C 35.796 453.949, 33.608 462.288, 31.101 472.750 C 30.607 474.813, 29.648 478.750, 28.970 481.500 C 26.732 490.580, 24.983 499.855, 23.186 512.173 C 22.651 515.843, 21.952 519.269, 21.633 519.785 C 21.065 520.703, 19.596 531.015, 17.897 546 C 17.429 550.125, 16.602 560.025, 16.059 568 C 15.515 575.975, 14.617 586.775, 14.062 592 C 12.775 604.132, 12.791 633.414, 14.093 647 C 14.647 652.775, 15.538 663.125, 16.074 670 C 17.638 690.071, 20.527 713.425, 21.675 715.283 C 21.987 715.787, 22.622 718.742, 23.088 721.850 C 25.001 734.627, 27.641 747.435, 28.843 749.777 C 29.330 750.725, 30.005 753.300, 30.343 755.500 C 30.682 757.700, 31.442 761.525, 32.034 764 C 32.625 766.475, 33.501 770.300, 33.979 772.500 C 34.997 777.178, 36.409 782.286, 37.851 786.500 C 38.415 788.150, 39.415 791.525, 40.072 794 C 40.729 796.475, 42.588 802.325, 44.203 807 C 45.818 811.675, 47.806 817.525, 48.620 820 C 49.434 822.475, 50.483 825.400, 50.949 826.500 C 51.416 827.600, 52.361 830.075, 53.049 832 C 53.737 833.925, 54.840 836.850, 55.499 838.500 C 78.955 897.191, 109.271 949.354, 146.221 994.597 C 163.690 1015.986, 168.498 1021.216, 191.643 1044 C 214.270 1066.274, 221.416 1072.719, 240.151 1087.755 C 275.739 1116.316, 327.520 1147.095, 368 1163.751 C 369.925 1164.543, 372.850 1165.778, 374.500 1166.495 C 376.150 1167.212, 381.775 1169.470, 387 1171.512 C 392.225 1173.553, 397.400 1175.588, 398.500 1176.032 C 407.992 1179.866, 435.454 1188.741, 448 1192.029 C 450.475 1192.678, 453.534 1193.611, 454.797 1194.104 C 456.060 1194.597, 458.228 1195, 459.613 1195 C 460.998 1195, 463.032 1195.482, 464.132 1196.071 C 465.233 1196.660, 468.466 1197.583, 471.317 1198.122 C 474.167 1198.662, 478.525 1199.515, 481 1200.019 C 483.475 1200.523, 487.750 1201.336, 490.500 1201.826 C 493.250 1202.315, 496.175 1202.999, 497 1203.346 C 500.739 1204.919, 531.824 1209.142, 553 1210.955 C 559.325 1211.496, 568.550 1212.395, 573.500 1212.952 C 584.915 1214.236, 654.003 1214.234, 660 1212.948 C 662.475 1212.418, 669.450 1211.541, 675.500 1211.001 C 697.124 1209.067, 722.641 1205.508, 731.500 1203.188 C 733.700 1202.612, 738.200 1201.632, 741.500 1201.010 C 744.800 1200.388, 748.882 1199.457, 750.571 1198.940 C 752.260 1198.423, 754.450 1198, 755.437 1198 C 756.424 1198, 759.542 1197.277, 762.366 1196.393 C 771.512 1193.530, 773.606 1193, 775.762 1193 C 776.928 1193, 778.160 1192.550, 778.500 1192 C 778.840 1191.450, 780.110 1191, 781.323 1191 C 782.536 1191, 785.997 1190.061, 789.014 1188.914 C 792.031 1187.766, 795.850 1186.462, 797.500 1186.015 C 803.373 1184.425, 825.558 1176.690, 830.500 1174.510 C 832.150 1173.782, 838 1171.378, 843.500 1169.168 C 861.268 1162.029, 892.198 1146.999, 906.333 1138.635 C 910.641 1136.086, 914.317 1134, 914.503 1134 C 914.851 1134, 928.748 1125.557, 935 1121.548 C 942.970 1116.437, 961.812 1103.609, 966 1100.442 C 968.475 1098.571, 972.525 1095.592, 975 1093.823 C 996.249 1078.636, 1040.090 1037.892, 1058.740 1015.999 C 1069.898 1002.901, 1081.292 988.935, 1084.551 984.363 C 1086.173 982.087, 1090.004 976.912, 1093.065 972.863 C 1118.894 938.690, 1141.810 899.717, 1159.720 859.500 C 1166.535 844.198, 1168.901 838.390, 1173.981 824.500 C 1175.188 821.200, 1176.629 817.375, 1177.183 816 C 1178.286 813.260, 1179.534 809.375, 1182.963 798 C 1184.207 793.875, 1185.801 788.925, 1186.505 787 C 1187.209 785.075, 1188.283 781.587, 1188.893 779.250 C 1189.502 776.913, 1190.497 773.087, 1191.104 770.750 C 1191.711 768.413, 1192.611 765.466, 1193.104 764.203 C 1193.597 762.940, 1194 760.547, 1194 758.887 C 1194 757.227, 1194.462 755.005, 1195.028 753.949 C 1196.269 751.628, 1197.102 747.955, 1201.023 727.500 C 1201.550 724.750, 1202.458 719.158, 1203.040 715.074 C 1203.623 710.989, 1204.407 707.164, 1204.784 706.574 C 1205.782 705.005, 1208.067 685.061, 1210.176 659.500 C 1211.820 639.571, 1211.815 590.193, 1210.168 572 C 1207.433 541.785, 1205.572 525.734, 1204.627 524.206 C 1204.261 523.613, 1203.483 519.837, 1202.899 515.814 C 1200.806 501.403, 1198.472 488.922, 1196.482 481.500 C 1195.597 478.200, 1194.476 473.700, 1193.991 471.500 C 1193.071 467.325, 1192.577 465.304, 1188.009 447 C 1187.391 444.525, 1186.461 442.072, 1185.943 441.550 C 1185.424 441.027, 1184.993 439.677, 1184.985 438.550 C 1184.977 437.422, 1184.335 434.700, 1183.557 432.500 C 1182.779 430.300, 1179.679 421.525, 1176.666 413 C 1161.251 369.376, 1138.578 323.827, 1112.704 284.500 C 1103.528 270.554, 1087.714 249.016, 1078.562 238 C 1076.049 234.975, 1071.535 229.283, 1068.531 225.350 C 1061.466 216.102, 1015.276 170.026, 1003.150 160.130 C 998.007 155.934, 991.707 150.792, 989.150 148.704 C 981.835 142.731, 966.273 130.797, 961.501 127.500 C 930.280 105.931, 909.223 93.282, 882.630 80.120 C 872.658 75.185, 862.925 70.488, 861 69.682 C 859.075 68.875, 854.800 66.996, 851.500 65.505 C 848.200 64.015, 842.575 61.673, 839 60.301 C 835.425 58.929, 830.250 56.881, 827.500 55.750 C 819.062 52.279, 803.653 46.829, 800.738 46.285 C 799.219 46.001, 797.729 45.371, 797.429 44.885 C 797.128 44.398, 795.634 44, 794.108 44 C 792.582 44, 791.015 43.682, 790.626 43.293 C 789.826 42.493, 772.185 37.629, 760.500 34.986 C 758.300 34.489, 753.575 33.370, 750 32.501 C 740.869 30.281, 726.776 27.730, 714.862 26.141 C 711.211 25.654, 707.752 24.965, 707.176 24.609 C 705.382 23.500, 683.257 20.634, 663.500 18.951 C 651.898 17.962, 577.212 16.729, 575.500 17.498 M 570.500 71.058 C 557.015 71.931, 540.180 73.771, 539.001 74.500 C 538.521 74.796, 534.837 75.520, 530.814 76.107 C 512.333 78.807, 504.595 80.195, 495 82.532 C 491.425 83.403, 487.375 84.336, 486 84.605 C 484.625 84.875, 481.925 85.495, 480 85.984 C 478.075 86.474, 474.250 87.395, 471.500 88.032 C 468.750 88.670, 465.375 89.562, 464 90.016 C 462.625 90.469, 458.800 91.607, 455.500 92.545 C 437.737 97.591, 407.727 108.331, 391 115.627 C 375.437 122.415, 341.296 139.994, 327.500 148.321 C 304.747 162.056, 282.472 177.977, 259 197.283 C 239.738 213.126, 201.361 253.055, 182.718 276.651 C 155.737 310.798, 129.978 353.425, 113.615 391 C 112.058 394.575, 110.192 398.850, 109.468 400.500 C 108.744 402.150, 107.162 406.200, 105.952 409.500 C 104.743 412.800, 103.359 415.927, 102.877 416.450 C 102.394 416.972, 102 418.345, 102 419.500 C 102 420.655, 101.590 422.027, 101.089 422.550 C 100.587 423.072, 97.611 431.150, 94.474 440.500 C 88.841 457.290, 87.807 460.661, 85.888 468.500 C 84.410 474.536, 83.279 478.882, 81.463 485.500 C 79.870 491.303, 79.227 494.298, 77.059 506 C 76.499 509.025, 75.332 514.875, 74.467 519 C 71.931 531.087, 69.898 546.690, 68.057 568.217 C 67.505 574.661, 66.595 582.761, 66.035 586.217 C 64.759 594.079, 64.762 636.931, 66.039 647 C 66.562 651.125, 67.467 660.350, 68.049 667.500 C 69.653 687.198, 72.326 708.100, 73.478 709.965 C 73.882 710.619, 74.613 713.932, 75.102 717.327 C 75.591 720.722, 76.464 725.750, 77.041 728.500 C 77.618 731.250, 78.313 734.850, 78.586 736.500 C 79.064 739.394, 79.824 742.402, 82.500 752 C 83.190 754.475, 84.260 758.413, 84.877 760.750 C 85.495 763.087, 86.514 766.913, 87.142 769.250 C 90.812 782.903, 102.240 815.344, 108.014 828.500 C 108.980 830.700, 110.996 835.425, 112.495 839 C 118.024 852.187, 134.032 883.033, 142.856 897.500 C 168.628 939.756, 187.138 963.116, 224.500 1000.535 C 256.655 1032.740, 269.789 1043.823, 303 1066.779 C 311.802 1072.863, 328.361 1083.526, 334.173 1086.852 C 336.003 1087.899, 340.397 1090.409, 343.937 1092.429 C 353.335 1097.793, 377.822 1109.899, 390.500 1115.450 C 408.763 1123.446, 410.346 1124.069, 430.500 1131.191 C 443.785 1135.886, 448.511 1137.340, 465.954 1142.100 C 470.054 1143.219, 473.737 1144.337, 474.138 1144.585 C 474.538 1144.833, 477.034 1145.503, 479.683 1146.076 C 482.332 1146.648, 486.525 1147.558, 489 1148.098 C 491.475 1148.638, 496.130 1149.511, 499.344 1150.039 C 502.558 1150.566, 505.708 1151.322, 506.344 1151.719 C 506.980 1152.116, 509.975 1152.806, 513 1153.254 C 516.025 1153.702, 521.200 1154.497, 524.500 1155.021 C 527.800 1155.545, 534.198 1156.390, 538.717 1156.898 C 543.237 1157.407, 548.412 1158.275, 550.217 1158.827 C 555.732 1160.514, 577.770 1161.379, 615 1161.372 C 651.709 1161.365, 671.108 1160.567, 676.783 1158.829 C 678.588 1158.276, 683.763 1157.411, 688.283 1156.907 C 702.025 1155.375, 716.425 1153.041, 724.500 1151.038 C 731.444 1149.315, 735.609 1148.366, 742 1147.049 C 748.065 1145.800, 753.416 1144.401, 759.500 1142.474 C 761.700 1141.777, 765.525 1140.642, 768 1139.951 C 779.344 1136.785, 807.690 1127.093, 814.500 1124.052 C 815.600 1123.561, 822.125 1120.814, 829 1117.948 C 865.374 1102.784, 912.575 1074.992, 944.400 1050 C 947.551 1047.525, 952.739 1043.475, 955.927 1041 C 976.775 1024.818, 1022.665 978.924, 1037.500 959.421 C 1039.700 956.529, 1043.525 951.577, 1046 948.417 C 1060.368 930.076, 1076.900 904.981, 1090.413 881 C 1098.389 866.847, 1113.074 835.967, 1118.709 821.500 C 1120.638 816.550, 1122.800 811.150, 1123.515 809.500 C 1125.020 806.024, 1135.115 775.649, 1136.974 769 C 1137.666 766.525, 1138.577 763.375, 1138.998 762 C 1139.419 760.625, 1140.533 756.800, 1141.474 753.500 C 1142.415 750.200, 1143.593 746.118, 1144.092 744.429 C 1144.591 742.740, 1145 740.399, 1145 739.226 C 1145 738.053, 1145.407 736.060, 1145.905 734.797 C 1146.402 733.534, 1147.274 730.025, 1147.841 727 C 1148.409 723.975, 1149.385 719.250, 1150.011 716.500 C 1151.932 708.060, 1154.563 691.213, 1155.944 678.500 C 1156.422 674.100, 1157.279 668.475, 1157.848 666 C 1161.245 651.218, 1161.201 580.964, 1157.786 567.500 C 1157.228 565.300, 1156.388 559.675, 1155.919 555 C 1154.636 542.212, 1153.263 532.385, 1151.518 523.500 C 1150.654 519.100, 1149.510 513.250, 1148.976 510.500 C 1148.442 507.750, 1147.551 503.475, 1146.997 501 C 1146.442 498.525, 1145.586 494.475, 1145.095 492 C 1144.605 489.525, 1143.434 484.800, 1142.494 481.500 C 1141.554 478.200, 1140.358 473.925, 1139.836 472 C 1139.314 470.075, 1138.437 466.925, 1137.887 465 C 1137.337 463.075, 1136.520 460.150, 1136.070 458.500 C 1135.117 454.997, 1129.125 436.424, 1128.005 433.500 C 1127.338 431.757, 1125.737 427.609, 1122.987 420.500 C 1112.764 394.069, 1098.573 363.491, 1089.917 349.243 C 1087.763 345.697, 1086 342.623, 1086 342.413 C 1086 341.050, 1065.512 309.134, 1057.500 298.015 C 1056.400 296.488, 1053.965 293.048, 1052.089 290.370 C 1050.213 287.691, 1046.613 283.052, 1044.089 280.060 C 1041.565 277.067, 1038.150 272.752, 1036.500 270.469 C 1024.820 254.311, 975.906 205.438, 958.500 192.535 C 956.300 190.904, 951.765 187.304, 948.421 184.535 C 942.881 179.946, 934.302 173.675, 918.761 162.853 C 896.183 147.132, 848.853 121.704, 826.500 113.287 C 824.300 112.459, 820.977 111.106, 819.116 110.280 C 814.922 108.420, 788.589 99.096, 784.500 98.024 C 782.850 97.591, 779.475 96.568, 777 95.750 C 774.525 94.931, 769.800 93.492, 766.500 92.551 C 763.200 91.610, 759.375 90.482, 758 90.044 C 756.625 89.606, 753.025 88.724, 750 88.082 C 746.975 87.441, 742.925 86.531, 741 86.060 C 739.075 85.588, 735.250 84.652, 732.500 83.979 C 718.920 80.655, 709.001 78.948, 686.612 76.084 C 681.723 75.459, 677.313 74.694, 676.812 74.384 C 675.448 73.541, 660.410 72.028, 643.500 71.031 C 626.134 70.008, 586.491 70.023, 570.500 71.058" stroke="none" fill="#0a6cd1" fill-rule="evenodd"/><path d="M 579 16.613 C 580.375 16.786, 597.700 17.056, 617.500 17.213 C 637.300 17.371, 650.800 17.211, 647.500 16.859 C 641.648 16.233, 574.039 15.991, 579 16.613 M 545.683 18.650 C 545.325 19.008, 541.088 19.648, 536.266 20.072 C 527.500 20.844, 527.500 20.844, 536.500 20.339 C 541.450 20.061, 550 19.502, 555.500 19.098 C 565.500 18.362, 565.500 18.362, 555.917 18.181 C 550.646 18.081, 546.041 18.293, 545.683 18.650 M 664 19.029 C 669.225 19.443, 676.650 20.006, 680.500 20.279 C 687.500 20.775, 687.500 20.775, 681.500 19.883 C 678.200 19.392, 670.775 18.830, 665 18.633 C 654.500 18.275, 654.500 18.275, 664 19.029 M 522.500 22 C 521.400 22.473, 518.475 22.923, 516 23 C 513.525 23.077, 510.600 23.510, 509.500 23.962 C 506.222 25.307, 520.150 23.826, 524 22.420 C 525.925 21.716, 526.825 21.141, 526 21.141 C 525.175 21.141, 523.600 21.527, 522.500 22 M 705.500 24.068 C 707.150 24.651, 711.425 25.555, 715 26.077 C 725.527 27.615, 732.330 28.754, 735 29.426 C 737.500 30.056, 737.500 30.056, 735 28.881 C 733.625 28.234, 730.025 27.328, 727 26.866 C 723.975 26.404, 718.575 25.583, 715 25.041 C 711.425 24.499, 707.150 23.820, 705.500 23.532 C 702.500 23.008, 702.500 23.008, 705.500 24.068 M 497.764 25.569 C 497.452 25.882, 495.014 26.539, 492.348 27.030 C 487.500 27.922, 487.500 27.922, 492.500 27.385 C 495.250 27.090, 499.750 26.496, 502.500 26.065 C 507.500 25.282, 507.500 25.282, 502.917 25.141 C 500.396 25.063, 498.077 25.256, 497.764 25.569 M 472 31.037 C 470.625 31.490, 467.700 32.308, 465.500 32.856 C 458.387 34.626, 451.462 36.875, 452.929 36.938 C 453.715 36.972, 455.740 36.580, 457.429 36.068 C 459.118 35.555, 462.300 34.689, 464.500 34.142 C 471.981 32.284, 478.507 30.123, 476.500 30.168 C 475.400 30.193, 473.375 30.583, 472 31.037 M 753.500 33.095 C 755.150 33.693, 758.300 34.566, 760.500 35.036 C 767.675 36.569, 772.462 37.736, 774.500 38.450 C 776.480 39.144, 776.480 39.139, 774.525 37.900 C 773.440 37.212, 770.740 36.254, 768.525 35.770 C 766.311 35.286, 762.700 34.489, 760.500 33.999 C 758.300 33.509, 755.150 32.860, 753.500 32.558 C 750.500 32.008, 750.500 32.008, 753.500 33.095 M 447 38.037 C 445.625 38.490, 442.475 39.407, 440 40.075 C 433.848 41.736, 426.925 44.180, 430 43.606 C 431.375 43.349, 434.300 42.628, 436.500 42.003 C 438.700 41.378, 442.086 40.526, 444.025 40.109 C 445.965 39.692, 448.440 38.835, 449.525 38.206 C 451.776 36.901, 450.672 36.827, 447 38.037 M 790.586 43.139 C 790.879 43.613, 792.415 44, 794 44 C 795.585 44, 797.128 44.398, 797.429 44.885 C 797.729 45.371, 799.219 46.001, 800.738 46.285 C 803.653 46.829, 819.062 52.279, 827.500 55.750 C 830.250 56.881, 835.425 58.929, 839 60.301 C 844.849 62.545, 851.223 65.306, 860.786 69.739 C 862.593 70.576, 864.290 71.044, 864.556 70.777 C 865.045 70.288, 834.716 57, 833.112 57 C 832.637 57, 829.769 55.903, 826.738 54.563 C 823.707 53.223, 817.914 50.986, 813.864 49.593 C 809.814 48.200, 804.475 46.312, 802 45.398 C 796.271 43.281, 789.894 42.019, 790.586 43.139 M 408.500 50.186 C 405.750 51.299, 402.248 52.673, 400.718 53.240 C 399.188 53.806, 398.091 54.424, 398.280 54.614 C 398.470 54.803, 401.747 53.799, 405.562 52.382 C 409.378 50.965, 413.625 49.438, 415 48.989 C 416.995 48.337, 417.096 48.171, 415.500 48.167 C 414.400 48.164, 411.250 49.073, 408.500 50.186 M 389.316 57.508 C 383.325 59.755, 376.767 63.080, 381.500 61.471 C 387.572 59.406, 396.316 56.017, 396.788 55.545 C 397.753 54.580, 395.641 55.135, 389.316 57.508 M 372.500 64.515 C 369.750 65.834, 365.756 67.627, 363.625 68.499 C 361.494 69.371, 359.969 70.302, 360.236 70.569 C 360.503 70.836, 364.947 69.055, 370.111 66.610 C 375.275 64.165, 379.050 62.154, 378.500 62.140 C 377.950 62.126, 375.250 63.195, 372.500 64.515 M 344.562 77.565 C 318.030 90.900, 302.601 99.853, 274 118.512 C 259.979 127.658, 236.732 145.034, 227.095 153.570 C 224.568 155.808, 219.800 159.687, 216.500 162.190 C 207.842 168.757, 166.505 210.250, 157.313 221.601 C 153.016 226.907, 147.362 233.780, 144.750 236.874 C 142.137 239.968, 138.820 244.300, 137.379 246.500 C 135.938 248.700, 133.724 251.625, 132.459 253 C 127.831 258.031, 107.276 289.042, 96.004 308 C 85.851 325.077, 65 365.731, 65 368.452 C 65 368.673, 63.497 372.149, 61.660 376.177 C 59.823 380.205, 56.639 388, 54.584 393.500 C 52.530 399, 50.433 404.400, 49.925 405.500 C 48.887 407.748, 45.170 418.435, 44.361 421.500 C 44.071 422.600, 43.467 424.400, 43.020 425.500 C 41.998 428.013, 38.072 440.350, 36.814 445 C 35.804 448.733, 34.701 453.039, 33.100 459.500 C 32.555 461.700, 31.372 466.200, 30.471 469.500 C 28.050 478.364, 25.559 490.328, 24.088 500.150 C 23.622 503.258, 22.908 506.340, 22.500 507 C 21.578 508.492, 19.944 519.591, 17.128 543.500 C 16.609 547.900, 15.930 553.075, 15.618 555 C 15.306 556.925, 14.804 562.775, 14.503 568 C 14.201 573.225, 13.471 582.900, 12.881 589.500 C 10.858 612.109, 12.858 662.030, 17.018 692.750 C 17.558 696.737, 18.406 703.038, 18.902 706.750 C 20.482 718.569, 22.003 727.196, 22.710 728.340 C 23.087 728.950, 23.757 731.711, 24.198 734.475 C 24.977 739.358, 26.005 744.511, 27.942 753.250 C 28.460 755.587, 29.348 759.644, 29.915 762.264 C 30.481 764.885, 31.407 767.893, 31.972 768.949 C 32.538 770.005, 33 772.002, 33 773.387 C 33 774.772, 33.403 776.940, 33.896 778.203 C 34.389 779.466, 35.344 782.525, 36.019 785 C 38.826 795.299, 40.159 799.595, 41.053 801.236 C 41.574 802.191, 42 803.660, 42 804.500 C 42 805.340, 42.395 806.809, 42.877 807.764 C 43.360 808.719, 44.287 811.300, 44.938 813.500 C 45.990 817.055, 47.500 821.193, 50.047 827.500 C 50.491 828.600, 52.278 833.325, 54.018 838 C 55.758 842.675, 57.816 847.962, 58.591 849.750 C 62.066 857.764, 62.990 859.859, 65.536 865.500 C 74.986 886.431, 92.236 919.311, 101.099 933.285 C 115.403 955.838, 129.662 975.976, 144.442 994.500 C 166.444 1022.074, 206.872 1063.043, 228.321 1079.500 C 231.188 1081.700, 236.722 1086.200, 240.620 1089.500 C 253.467 1100.379, 274.364 1114.820, 298.670 1129.615 C 323.033 1144.446, 376.033 1169.808, 396.954 1176.648 C 399.454 1177.466, 402.850 1178.723, 404.500 1179.443 C 406.150 1180.162, 412.225 1182.220, 418 1184.016 C 423.775 1185.811, 431.650 1188.282, 435.500 1189.506 C 442.479 1191.724, 447.194 1193.050, 455.250 1195.061 C 457.587 1195.644, 461.750 1196.748, 464.500 1197.513 C 467.250 1198.278, 470.850 1199.179, 472.500 1199.514 C 481.365 1201.315, 485.029 1202.010, 490.194 1202.867 C 493.325 1203.387, 496.344 1204.095, 496.903 1204.440 C 498.187 1205.233, 516.821 1208.102, 532 1209.844 C 536.675 1210.380, 543.425 1211.281, 547 1211.846 C 550.575 1212.411, 561.375 1213.393, 571 1214.027 C 600.825 1215.994, 680.584 1214.229, 684.991 1211.506 C 685.476 1211.206, 690.064 1210.499, 695.186 1209.935 C 711.013 1208.193, 729.647 1205.336, 731.118 1204.427 C 731.606 1204.125, 734.367 1203.433, 737.253 1202.888 C 753.751 1199.773, 762.687 1197.690, 776 1193.855 C 779.575 1192.826, 784.300 1191.489, 786.500 1190.884 C 788.700 1190.280, 792.075 1189.213, 794 1188.513 C 795.925 1187.814, 802 1185.795, 807.500 1184.027 C 813 1182.259, 818.850 1180.235, 820.500 1179.530 C 822.150 1178.826, 828.900 1176.139, 835.500 1173.560 C 873.763 1158.608, 913.023 1137.862, 949.500 1113.319 C 957.200 1108.138, 965.525 1102.354, 968 1100.465 C 970.475 1098.575, 974.975 1095.271, 978 1093.120 C 981.025 1090.970, 986.200 1086.778, 989.500 1083.805 C 992.800 1080.831, 997.075 1077.315, 999 1075.990 C 1003.145 1073.138, 1018.091 1059.639, 1033.310 1045 C 1044.620 1034.122, 1057.840 1019.631, 1066.500 1008.622 C 1069.250 1005.125, 1073.803 999.618, 1076.617 996.382 C 1079.431 993.147, 1083.031 988.658, 1084.617 986.407 C 1086.203 984.156, 1089.525 979.693, 1092 976.489 C 1098.982 967.452, 1118.550 938.936, 1123.953 929.924 C 1124.753 928.591, 1127.776 923.599, 1130.671 918.831 C 1141.732 900.615, 1158.856 866.241, 1166.952 846 C 1169.262 840.225, 1171.524 834.600, 1171.979 833.500 C 1172.433 832.400, 1173.790 828.800, 1174.994 825.500 C 1176.198 822.200, 1177.789 817.925, 1178.530 816 C 1179.272 814.075, 1180.426 810.700, 1181.096 808.500 C 1181.766 806.300, 1183.198 802.025, 1184.279 799 C 1185.360 795.975, 1186.640 792.038, 1187.122 790.250 C 1187.605 788.462, 1188.480 785.313, 1189.066 783.250 C 1189.653 781.188, 1190.530 777.925, 1191.015 776 C 1191.500 774.075, 1192.642 770.025, 1193.553 767 C 1194.464 763.975, 1195.587 759.700, 1196.050 757.500 C 1196.512 755.300, 1197.373 751.475, 1197.962 749 C 1198.551 746.525, 1199.387 742.239, 1199.819 739.475 C 1200.251 736.711, 1200.896 733.978, 1201.252 733.402 C 1201.965 732.248, 1203.748 722.955, 1205.118 713.250 C 1205.603 709.813, 1206.423 704.188, 1206.939 700.750 C 1207.456 697.313, 1208.357 689.843, 1208.941 684.152 C 1209.526 678.460, 1210.265 673.381, 1210.584 672.865 C 1211.879 670.769, 1213.400 639.915, 1213.412 615.500 C 1213.423 591.029, 1211.831 561.154, 1210.392 558.825 C 1210.035 558.248, 1209.340 553.214, 1208.847 547.638 C 1208.353 542.062, 1207.515 534.575, 1206.984 531 C 1206.454 527.425, 1205.666 521.575, 1205.235 518 C 1204.804 514.425, 1204.077 510.903, 1203.619 510.173 C 1203.161 509.443, 1202.389 506.068, 1201.903 502.673 C 1201.053 496.738, 1199.853 490.294, 1197.912 481.250 C 1197.410 478.913, 1196.590 475.088, 1196.088 472.750 C 1195.587 470.413, 1194.426 466.025, 1193.509 463 C 1192.592 459.975, 1191.457 455.925, 1190.987 454 C 1190.204 450.793, 1189.378 447.760, 1187.037 439.500 C 1185.813 435.183, 1179.396 415.953, 1178.194 413 C 1177.634 411.625, 1176.181 407.800, 1174.965 404.500 C 1160.889 366.298, 1137.332 319.613, 1115.317 286.292 C 1104.326 269.655, 1089.712 249.584, 1079.307 236.835 C 1077.213 234.269, 1072.827 228.869, 1069.561 224.835 C 1060.682 213.870, 1020.125 173.175, 1007.089 162.151 C 972.734 133.097, 947.165 114.888, 913.591 95.565 C 896.986 86.009, 867.057 70.609, 866.389 71.278 C 866.202 71.465, 873.842 75.540, 883.366 80.333 C 909.814 93.644, 931.047 106.462, 961.501 127.500 C 966.273 130.797, 981.835 142.731, 989.150 148.704 C 991.707 150.792, 998.007 155.934, 1003.150 160.130 C 1015.276 170.026, 1061.466 216.102, 1068.531 225.350 C 1071.535 229.283, 1076.049 234.975, 1078.562 238 C 1087.714 249.016, 1103.528 270.554, 1112.704 284.500 C 1138.578 323.827, 1161.251 369.376, 1176.666 413 C 1179.679 421.525, 1182.779 430.300, 1183.557 432.500 C 1184.335 434.700, 1184.977 437.422, 1184.985 438.550 C 1184.993 439.677, 1185.424 441.027, 1185.943 441.550 C 1186.461 442.072, 1187.391 444.525, 1188.009 447 C 1188.626 449.475, 1189.532 453.075, 1190.020 455 C 1191.612 461.270, 1193.092 467.420, 1193.991 471.500 C 1194.476 473.700, 1195.597 478.200, 1196.482 481.500 C 1198.472 488.922, 1200.806 501.403, 1202.899 515.814 C 1203.483 519.837, 1204.261 523.613, 1204.627 524.206 C 1205.572 525.734, 1207.433 541.785, 1210.168 572 C 1211.815 590.193, 1211.820 639.571, 1210.176 659.500 C 1208.067 685.061, 1205.782 705.005, 1204.784 706.574 C 1204.407 707.164, 1203.623 710.989, 1203.040 715.074 C 1200.817 730.660, 1196.636 750.943, 1195.028 753.949 C 1194.462 755.005, 1194 757.227, 1194 758.887 C 1194 760.547, 1193.597 762.940, 1193.104 764.203 C 1192.611 765.466, 1191.749 768.300, 1191.187 770.500 C 1188.755 780.020, 1187.708 783.711, 1186.505 787 C 1185.801 788.925, 1184.207 793.875, 1182.963 798 C 1179.534 809.375, 1178.286 813.260, 1177.183 816 C 1176.629 817.375, 1175.188 821.200, 1173.981 824.500 C 1168.901 838.390, 1166.535 844.198, 1159.720 859.500 C 1141.810 899.717, 1118.894 938.690, 1093.065 972.863 C 1090.004 976.912, 1086.173 982.087, 1084.551 984.363 C 1081.292 988.935, 1069.898 1002.901, 1058.740 1015.999 C 1040.090 1037.892, 996.249 1078.636, 975 1093.823 C 972.525 1095.592, 968.475 1098.571, 966 1100.442 C 961.812 1103.609, 942.970 1116.437, 935 1121.548 C 928.748 1125.557, 914.851 1134, 914.503 1134 C 914.317 1134, 910.641 1136.086, 906.333 1138.635 C 892.198 1146.999, 861.268 1162.029, 843.500 1169.168 C 838 1171.378, 832.150 1173.782, 830.500 1174.510 C 825.558 1176.690, 803.373 1184.425, 797.500 1186.015 C 795.850 1186.462, 792.031 1187.766, 789.014 1188.914 C 785.997 1190.061, 782.536 1191, 781.323 1191 C 780.110 1191, 778.840 1191.450, 778.500 1192 C 778.160 1192.550, 776.928 1193, 775.762 1193 C 773.606 1193, 771.512 1193.530, 762.366 1196.393 C 759.542 1197.277, 756.424 1198, 755.437 1198 C 754.450 1198, 752.260 1198.423, 750.571 1198.940 C 748.882 1199.457, 744.800 1200.388, 741.500 1201.010 C 738.200 1201.632, 733.700 1202.612, 731.500 1203.188 C 722.641 1205.508, 697.124 1209.067, 675.500 1211.001 C 669.450 1211.541, 662.475 1212.418, 660 1212.948 C 654.003 1214.234, 584.915 1214.236, 573.500 1212.952 C 568.550 1212.395, 559.325 1211.496, 553 1210.955 C 531.824 1209.142, 500.739 1204.919, 497 1203.346 C 496.175 1202.999, 493.475 1202.344, 491 1201.890 C 488.525 1201.436, 484.250 1200.623, 481.500 1200.084 C 478.750 1199.544, 474.167 1198.662, 471.317 1198.122 C 468.466 1197.583, 465.233 1196.660, 464.132 1196.071 C 463.032 1195.482, 460.998 1195, 459.613 1195 C 458.228 1195, 456.060 1194.597, 454.797 1194.104 C 453.534 1193.611, 450.475 1192.678, 448 1192.029 C 435.454 1188.741, 407.992 1179.866, 398.500 1176.032 C 397.400 1175.588, 392.225 1173.553, 387 1171.512 C 381.775 1169.470, 376.150 1167.212, 374.500 1166.495 C 372.850 1165.778, 369.925 1164.543, 368 1163.751 C 327.520 1147.095, 275.739 1116.316, 240.151 1087.755 C 221.416 1072.719, 214.270 1066.274, 191.643 1044 C 168.498 1021.216, 163.690 1015.986, 146.221 994.597 C 109.271 949.354, 78.955 897.191, 55.499 838.500 C 54.840 836.850, 53.737 833.925, 53.049 832 C 52.361 830.075, 51.423 827.600, 50.965 826.500 C 48.609 820.841, 41.931 800.897, 40.083 794 C 39.419 791.525, 38.415 788.150, 37.851 786.500 C 36.409 782.286, 34.997 777.178, 33.979 772.500 C 33.501 770.300, 32.625 766.475, 32.034 764 C 31.442 761.525, 30.682 757.700, 30.343 755.500 C 30.005 753.300, 29.330 750.725, 28.843 749.777 C 27.641 747.435, 25.001 734.627, 23.088 721.850 C 22.622 718.742, 21.987 715.787, 21.675 715.283 C 20.527 713.425, 17.638 690.071, 16.074 670 C 15.538 663.125, 14.647 652.775, 14.093 647 C 12.791 633.414, 12.775 604.132, 14.062 592 C 14.617 586.775, 15.515 575.975, 16.059 568 C 16.602 560.025, 17.429 550.125, 17.897 546 C 19.596 531.015, 21.065 520.703, 21.633 519.785 C 21.952 519.269, 22.651 515.843, 23.186 512.173 C 24.983 499.855, 26.732 490.580, 28.970 481.500 C 29.648 478.750, 30.644 474.700, 31.184 472.500 C 34.444 459.207, 35.975 453.358, 37.595 448 C 38.343 445.525, 39.917 440.125, 41.093 436 C 42.269 431.875, 44.304 425.565, 45.615 421.979 C 46.927 418.392, 48 414.899, 48 414.215 C 48 413.532, 48.414 412.191, 48.920 411.236 C 49.426 410.281, 50.842 406.800, 52.067 403.500 C 53.291 400.200, 54.842 396.150, 55.514 394.500 C 56.185 392.850, 57.994 388.350, 59.534 384.500 C 77.055 340.685, 104.837 291.502, 133.815 253 C 146.070 236.717, 159.587 220.565, 172.663 206.579 C 187.642 190.559, 213.220 165.924, 222.583 158.500 C 226.051 155.750, 232.494 150.575, 236.901 147 C 268.680 121.218, 306.266 97.615, 351 75.350 C 355.675 73.023, 359.050 71.106, 358.500 71.091 C 357.950 71.075, 351.678 73.988, 344.562 77.565 M 565.250 71.735 C 567.862 71.941, 572.138 71.941, 574.750 71.735 C 577.362 71.529, 575.225 71.360, 570 71.360 C 564.775 71.360, 562.638 71.529, 565.250 71.735 M 641.784 71.738 C 644.689 71.941, 649.189 71.939, 651.784 71.734 C 654.378 71.528, 652 71.363, 646.500 71.365 C 641 71.368, 638.878 71.536, 641.784 71.738 M 550 73 C 543.500 73.655, 543.500 73.655, 549.500 73.728 C 552.800 73.768, 556.625 73.440, 558 73 C 561.002 72.039, 559.542 72.039, 550 73 M 659.500 73.007 C 661.150 73.440, 665.875 74.016, 670 74.287 C 674.583 74.589, 676.333 74.474, 674.500 73.993 C 672.850 73.560, 668.125 72.984, 664 72.713 C 659.417 72.411, 657.667 72.526, 659.500 73.007 M 525.709 76.625 C 525.365 76.968, 522.252 77.623, 518.792 78.079 C 510.669 79.149, 502.414 80.690, 498 81.959 C 494.500 82.965, 494.500 82.965, 498.500 82.388 C 500.700 82.070, 504.750 81.385, 507.500 80.866 C 510.250 80.347, 515.200 79.539, 518.500 79.072 C 524.550 78.214, 530.907 76.183, 527.917 76.063 C 527.046 76.029, 526.052 76.281, 525.709 76.625 M 701.500 78.985 C 704.250 79.452, 709.425 80.342, 713 80.964 C 716.575 81.585, 721.300 82.275, 723.500 82.497 C 727.500 82.899, 727.500 82.899, 723.500 81.938 C 717.408 80.474, 708.119 79.011, 702 78.551 C 696.500 78.138, 696.500 78.138, 701.500 78.985 M 469 88.564 C 466.525 89.288, 463.150 90.355, 461.500 90.936 C 458.500 91.992, 458.500 91.992, 461.500 91.451 C 464.455 90.919, 468.120 90.024, 475 88.155 C 477.710 87.419, 477.936 87.210, 476 87.226 C 474.625 87.238, 471.475 87.840, 469 88.564 M 750 88.986 C 750.825 89.527, 752.308 89.976, 753.296 89.985 C 754.283 89.993, 758.783 91.141, 763.296 92.536 C 767.808 93.930, 774.650 96.010, 778.500 97.156 C 782.350 98.303, 786.752 99.698, 788.282 100.255 C 789.812 100.813, 791.277 101.056, 791.537 100.796 C 791.797 100.536, 790.095 99.740, 787.755 99.028 C 785.415 98.315, 781.025 96.947, 778 95.987 C 774.975 95.027, 769.800 93.476, 766.500 92.541 C 763.200 91.605, 759.375 90.464, 758 90.004 C 753.683 88.561, 748.309 87.877, 750 88.986 M 453 93.097 C 451.625 93.584, 448.475 94.640, 446 95.443 C 443.525 96.247, 442.143 96.926, 442.929 96.952 C 444.404 97.002, 448.900 95.681, 455 93.408 C 456.925 92.690, 457.825 92.128, 457 92.158 C 456.175 92.188, 454.375 92.611, 453 93.097 M 425.500 101.990 C 424.400 102.461, 416.833 105.401, 408.685 108.525 C 400.537 111.648, 394.066 114.400, 394.306 114.639 C 394.546 114.879, 396.037 114.545, 397.621 113.897 C 404.460 111.099, 406.937 110.122, 414.500 107.242 C 429.414 101.562, 430.502 101.103, 429 101.119 C 428.175 101.128, 426.600 101.520, 425.500 101.990 M 794.060 101.868 C 796.161 103.240, 811.109 108.225, 811.612 107.721 C 811.952 107.381, 808.709 106.204, 794.500 101.510 C 792.890 100.978, 792.805 101.048, 794.060 101.868 M 813 108.453 C 813 108.997, 821.893 113, 823.102 113 C 823.568 113, 826.999 114.389, 830.725 116.087 C 834.451 117.786, 839.075 119.877, 841 120.735 C 870.775 134.003, 893.379 146.967, 930.386 172 C 938.687 177.615, 964.136 198.016, 976.723 209.145 C 992.970 223.511, 1026.344 258.357, 1034.528 269.500 C 1036.144 271.700, 1039.723 276.246, 1042.483 279.602 C 1053.434 292.920, 1071.921 320.343, 1084.211 341.500 C 1092.969 356.576, 1112 394.117, 1112 396.317 C 1112 396.660, 1113.125 399.400, 1114.500 402.406 C 1115.875 405.412, 1117 408.131, 1117 408.447 C 1117 408.763, 1117.847 410.929, 1118.882 413.261 C 1119.917 415.592, 1121.231 418.850, 1121.802 420.500 C 1122.374 422.150, 1124.411 427.775, 1126.330 433 C 1128.249 438.225, 1131.447 447.900, 1133.437 454.500 C 1135.427 461.100, 1137.493 467.882, 1138.027 469.571 C 1138.562 471.260, 1139 473.596, 1139 474.762 C 1139 475.928, 1139.450 477.160, 1140 477.500 C 1140.550 477.840, 1140.998 479.104, 1140.995 480.309 C 1140.992 481.514, 1141.632 484.525, 1142.417 487 C 1143.202 489.475, 1144.329 493.863, 1144.922 496.750 C 1146.947 506.610, 1147.904 511.500, 1148.887 517 C 1149.427 520.025, 1150.417 524.975, 1151.087 528 C 1152.257 533.289, 1152.732 536.743, 1155.009 556.500 C 1157.507 578.168, 1158.041 585.844, 1158.595 608 C 1159.035 625.568, 1158.768 636.423, 1157.538 651 C 1155.247 678.138, 1153.803 690.234, 1151.508 701.500 C 1150.724 705.350, 1149.592 711.200, 1148.993 714.500 C 1146.679 727.250, 1144.239 738.696, 1142.492 745 C 1141.806 747.475, 1140.688 751.525, 1140.007 754 C 1139.325 756.475, 1138.416 759.625, 1137.987 761 C 1137.557 762.375, 1136.450 766.200, 1135.526 769.500 C 1133.558 776.535, 1130.079 787.645, 1128.951 790.500 C 1128.516 791.600, 1126.963 795.875, 1125.500 800 C 1124.037 804.125, 1122.474 808.400, 1122.028 809.500 C 1121.582 810.600, 1119.098 816.900, 1116.509 823.500 C 1113.920 830.100, 1106.927 845.400, 1100.970 857.500 C 1079.175 901.773, 1055.489 937.462, 1024.083 973.353 C 1013.152 985.844, 973.153 1025.343, 963.168 1033.506 C 959.135 1036.803, 953.907 1041.075, 951.549 1043 C 947.344 1046.434, 942.464 1050.184, 932.500 1057.638 C 920.172 1066.860, 898.085 1080.909, 877 1092.938 C 870.487 1096.654, 838.237 1112.793, 832.500 1115.207 C 830.300 1116.133, 826.250 1117.864, 823.500 1119.055 C 810.825 1124.542, 776.533 1136.525, 763.500 1140.022 C 761.850 1140.464, 757.800 1141.589, 754.500 1142.521 C 743.190 1145.714, 740.449 1146.358, 727 1148.980 C 724.525 1149.463, 718.900 1150.607, 714.500 1151.522 C 668.897 1161.012, 594.761 1162.946, 540.500 1156.060 C 524.262 1153.999, 519.171 1153.224, 518.289 1152.678 C 517.386 1152.120, 509.881 1150.647, 499.500 1148.991 C 494.892 1148.256, 478.282 1144.247, 470 1141.871 C 468.075 1141.319, 464.925 1140.493, 463 1140.037 C 461.075 1139.580, 455.900 1138.073, 451.500 1136.689 C 447.100 1135.305, 441.025 1133.409, 438 1132.477 C 434.975 1131.545, 431.600 1130.435, 430.500 1130.011 C 424.236 1127.595, 419.852 1125.946, 414.500 1123.994 C 411.200 1122.790, 407.600 1121.425, 406.500 1120.961 C 393.412 1115.440, 388.229 1113.166, 381 1109.775 C 338.471 1089.822, 310.576 1072.498, 268.651 1040 C 245.871 1022.342, 202.998 979.050, 183 953.511 C 180.525 950.350, 177.340 946.354, 175.922 944.632 C 166.989 933.778, 146.939 902.913, 134.588 881 C 126.537 866.717, 111.930 835.977, 106.351 821.574 C 104.418 816.583, 102.256 811.150, 101.546 809.500 C 100.837 807.850, 98.795 802, 97.009 796.500 C 95.222 791, 93.370 785.728, 92.893 784.784 C 92.416 783.840, 91.595 781.365, 91.069 779.284 C 90.164 775.698, 89.403 772.932, 86.934 764.250 C 86.347 762.188, 85.472 758.925, 84.988 757 C 84.505 755.075, 83.374 750.800, 82.475 747.500 C 81.576 744.200, 80.387 739.250, 79.832 736.500 C 79.278 733.750, 78.412 729.475, 77.908 727 C 77.404 724.525, 76.591 719.722, 76.102 716.327 C 75.613 712.932, 74.882 709.619, 74.478 708.965 C 73.315 707.083, 70.762 686.860, 69.054 666 C 68.491 659.125, 67.586 649.225, 67.042 644 C 65.811 632.160, 65.817 601.327, 67.054 590 C 67.564 585.325, 68.443 576.100, 69.008 569.500 C 70.905 547.338, 73.393 526.790, 74.373 525.205 C 74.719 524.645, 75.470 521.333, 76.041 517.844 C 76.613 514.355, 77.479 509.475, 77.965 507 C 78.452 504.525, 79.143 500.475, 79.502 498 C 79.860 495.525, 80.561 492.600, 81.059 491.500 C 81.557 490.400, 82.452 487.475, 83.048 485 C 83.644 482.525, 84.532 478.925, 85.020 477 C 85.509 475.075, 86.400 471.475, 87 469 C 87.600 466.525, 88.480 462.925, 88.955 461 C 89.430 459.075, 90.771 454.800, 91.936 451.500 C 93.100 448.200, 94.544 443.925, 95.143 442 C 102.644 417.907, 121.842 373.583, 134.557 351 C 145.494 331.575, 160.277 308.162, 168.970 296.500 C 170.610 294.300, 173.149 290.700, 174.614 288.500 C 176.078 286.300, 179.601 281.800, 182.443 278.500 C 185.285 275.200, 188.690 270.925, 190.010 269 C 194.432 262.552, 206.332 249.751, 228.551 227.542 C 250.364 205.737, 260.205 196.646, 267 192.025 C 268.925 190.716, 273.200 187.319, 276.500 184.477 C 279.800 181.635, 284.300 178.116, 286.500 176.658 C 288.700 175.200, 291.915 172.993, 293.645 171.754 C 316.676 155.252, 338.708 142.121, 366.436 128.373 C 379.052 122.118, 388.893 117, 388.306 117 C 385.890 117, 341.419 139.900, 327.500 148.311 C 304.700 162.089, 282.441 178.003, 259 197.283 C 239.738 213.126, 201.361 253.055, 182.718 276.651 C 155.737 310.798, 129.978 353.425, 113.615 391 C 112.058 394.575, 110.192 398.850, 109.468 400.500 C 108.744 402.150, 107.162 406.200, 105.952 409.500 C 104.743 412.800, 103.359 415.928, 102.877 416.450 C 102.394 416.973, 102 418.345, 102 419.500 C 102 420.655, 101.590 422.027, 101.089 422.550 C 100.587 423.072, 97.611 431.150, 94.474 440.500 C 88.924 457.040, 87.876 460.445, 85.934 468.250 C 83.815 476.760, 83.030 479.788, 81.463 485.500 C 79.870 491.303, 79.227 494.298, 77.059 506 C 76.499 509.025, 75.332 514.875, 74.467 519 C 71.931 531.087, 69.898 546.690, 68.057 568.217 C 67.505 574.661, 66.595 582.761, 66.035 586.217 C 64.759 594.079, 64.762 636.931, 66.039 647 C 66.562 651.125, 67.467 660.350, 68.049 667.500 C 69.653 687.198, 72.326 708.100, 73.478 709.965 C 73.882 710.619, 74.613 713.932, 75.102 717.327 C 75.591 720.722, 76.464 725.750, 77.041 728.500 C 77.618 731.250, 78.313 734.850, 78.586 736.500 C 79.064 739.394, 79.824 742.402, 82.500 752 C 83.190 754.475, 84.223 758.300, 84.795 760.500 C 87.340 770.288, 88.607 774.480, 93.708 790 C 98.731 805.286, 103.735 818.750, 108.014 828.500 C 108.980 830.700, 110.996 835.425, 112.495 839 C 118.024 852.187, 134.032 883.033, 142.856 897.500 C 168.628 939.756, 187.138 963.116, 224.500 1000.535 C 256.655 1032.740, 269.789 1043.823, 303 1066.779 C 311.802 1072.863, 328.361 1083.526, 334.173 1086.852 C 336.003 1087.899, 340.397 1090.409, 343.937 1092.429 C 353.335 1097.793, 377.822 1109.899, 390.500 1115.450 C 408.763 1123.446, 410.346 1124.069, 430.500 1131.191 C 443.785 1135.886, 448.511 1137.340, 465.954 1142.100 C 470.054 1143.219, 473.737 1144.337, 474.138 1144.585 C 474.538 1144.833, 477.034 1145.503, 479.683 1146.076 C 482.332 1146.648, 486.525 1147.558, 489 1148.098 C 491.475 1148.638, 496.130 1149.511, 499.344 1150.039 C 502.558 1150.566, 505.708 1151.322, 506.344 1151.719 C 506.980 1152.116, 509.975 1152.806, 513 1153.254 C 516.025 1153.702, 521.200 1154.497, 524.500 1155.021 C 527.800 1155.545, 534.198 1156.390, 538.717 1156.898 C 543.237 1157.407, 548.412 1158.275, 550.217 1158.827 C 555.732 1160.514, 577.770 1161.379, 615 1161.372 C 651.709 1161.365, 671.108 1160.567, 676.783 1158.829 C 678.588 1158.276, 683.763 1157.411, 688.283 1156.907 C 702.025 1155.375, 716.425 1153.041, 724.500 1151.038 C 731.444 1149.315, 735.609 1148.366, 742 1147.049 C 748.065 1145.800, 753.416 1144.401, 759.500 1142.474 C 761.700 1141.777, 765.525 1140.642, 768 1139.951 C 779.344 1136.785, 807.690 1127.093, 814.500 1124.052 C 815.600 1123.561, 822.125 1120.814, 829 1117.948 C 865.374 1102.784, 912.575 1074.992, 944.400 1050 C 947.551 1047.525, 952.739 1043.475, 955.927 1041 C 976.775 1024.818, 1022.665 978.924, 1037.500 959.421 C 1039.700 956.529, 1043.525 951.577, 1046 948.417 C 1060.368 930.076, 1076.900 904.981, 1090.413 881 C 1098.389 866.847, 1113.074 835.967, 1118.709 821.500 C 1120.638 816.550, 1122.800 811.150, 1123.515 809.500 C 1125.020 806.024, 1135.115 775.649, 1136.974 769 C 1137.666 766.525, 1138.577 763.375, 1138.998 762 C 1139.419 760.625, 1140.533 756.800, 1141.474 753.500 C 1142.415 750.200, 1143.593 746.118, 1144.092 744.429 C 1144.591 742.740, 1145 740.399, 1145 739.226 C 1145 738.053, 1145.407 736.060, 1145.905 734.797 C 1146.402 733.534, 1147.274 730.025, 1147.841 727 C 1148.409 723.975, 1149.385 719.250, 1150.011 716.500 C 1151.932 708.060, 1154.563 691.213, 1155.944 678.500 C 1156.422 674.100, 1157.279 668.475, 1157.848 666 C 1161.245 651.218, 1161.201 580.964, 1157.786 567.500 C 1157.228 565.300, 1156.388 559.675, 1155.919 555 C 1154.636 542.212, 1153.263 532.385, 1151.518 523.500 C 1150.654 519.100, 1149.510 513.250, 1148.976 510.500 C 1148.442 507.750, 1147.551 503.475, 1146.997 501 C 1146.442 498.525, 1145.586 494.475, 1145.095 492 C 1144.605 489.525, 1143.434 484.800, 1142.494 481.500 C 1141.554 478.200, 1140.383 474.038, 1139.893 472.250 C 1139.402 470.462, 1138.525 467.313, 1137.944 465.250 C 1137.363 463.188, 1136.520 460.150, 1136.070 458.500 C 1135.117 454.997, 1129.125 436.424, 1128.005 433.500 C 1127.338 431.757, 1125.737 427.609, 1122.987 420.500 C 1112.764 394.069, 1098.573 363.491, 1089.917 349.243 C 1087.763 345.697, 1086 342.623, 1086 342.413 C 1086 341.050, 1065.512 309.134, 1057.500 298.015 C 1056.400 296.488, 1053.965 293.048, 1052.089 290.370 C 1050.213 287.691, 1046.613 283.052, 1044.089 280.060 C 1041.565 277.067, 1038.150 272.752, 1036.500 270.469 C 1024.820 254.311, 975.906 205.438, 958.500 192.535 C 956.300 190.904, 951.765 187.304, 948.421 184.535 C 942.881 179.946, 934.302 173.675, 918.761 162.853 C 896.186 147.134, 848.886 121.722, 826.500 113.286 C 824.300 112.457, 820.592 110.929, 818.261 109.889 C 813.853 107.925, 813 107.692, 813 108.453 M 569 123.961 C 567.625 124.423, 564.502 124.845, 562.060 124.900 C 556.821 125.018, 547.501 126.587, 540.500 128.530 C 537.750 129.293, 534.150 130.141, 532.500 130.414 C 530.850 130.687, 527.475 131.355, 525 131.897 C 522.525 132.440, 518.442 133.332, 515.927 133.879 C 513.413 134.426, 508.913 135.802, 505.927 136.936 C 502.942 138.071, 499.706 138.999, 498.736 138.999 C 497.766 139, 496.191 139.438, 495.236 139.974 C 494.281 140.509, 491.250 141.611, 488.500 142.423 C 485.750 143.234, 479.675 145.296, 475 147.005 C 470.325 148.714, 464.250 150.927, 461.500 151.923 C 440.669 159.471, 396.504 185.489, 374.580 203.128 C 370.224 206.632, 363.699 211.709, 360.080 214.409 C 351.346 220.924, 313.967 258.517, 306.794 268 C 303.674 272.125, 299.399 277.750, 297.294 280.500 C 286.785 294.229, 273.668 317.581, 267.524 333.500 C 266.038 337.350, 264.240 341.850, 263.529 343.500 C 262.818 345.150, 261.679 348.300, 260.997 350.500 C 260.316 352.700, 259.363 354.928, 258.879 355.450 C 257.088 357.385, 255.127 355.707, 286.291 378.897 C 291.676 382.904, 296.693 385.948, 297.440 385.661 C 298.206 385.367, 299.028 383.041, 299.327 380.320 C 300.037 373.860, 300.967 368.926, 301.932 366.500 C 302.369 365.400, 303.535 362.025, 304.524 359 C 307.002 351.416, 314.715 333.990, 316.820 331.221 C 318.552 328.943, 318.552 328.943, 325.526 332.294 C 329.362 334.137, 335.200 336.665, 338.500 337.910 C 341.800 339.156, 347.200 341.234, 350.500 342.528 C 359.617 346.103, 383.680 354, 385.457 354 C 386.321 354, 387.809 354.408, 388.764 354.906 C 389.719 355.404, 393.425 356.575, 397 357.507 C 400.575 358.439, 404.534 359.606, 405.797 360.101 C 407.060 360.595, 409.171 361, 410.488 361 C 411.805 361, 413.160 361.450, 413.500 362 C 413.840 362.550, 415.941 363, 418.168 363 C 422.188 363, 422.214 363.025, 421.651 366.250 C 421.339 368.038, 420.709 371.752, 420.252 374.504 C 419.795 377.257, 419.054 380.104, 418.604 380.831 C 416.386 384.420, 412.442 419.905, 411.141 447.968 C 410.169 468.928, 409.172 466.149, 420.470 473.961 C 427.560 478.863, 433.611 483.364, 443.755 491.281 C 448.534 495.010, 453.131 497.927, 453.972 497.763 C 455.605 497.445, 455.594 497.736, 455.123 468 C 455.006 460.575, 455.406 448.875, 456.012 442 C 456.619 435.125, 457.469 425.225, 457.901 420 C 458.333 414.775, 458.977 409.825, 459.332 409 C 459.687 408.175, 460.474 404.350, 461.082 400.500 C 461.689 396.650, 462.594 391.025, 463.094 388 C 463.593 384.975, 464.287 380.324, 464.636 377.664 C 465.271 372.828, 465.271 372.828, 468.885 373.520 C 476.786 375.033, 483.847 376.165, 491 377.066 C 495.125 377.585, 501.650 378.459, 505.500 379.009 C 509.350 379.558, 516.775 380.426, 522 380.938 C 527.225 381.450, 535.100 382.304, 539.500 382.837 C 543.900 383.370, 557.063 384.380, 568.750 385.082 L 590 386.358 590 498.200 C 590 610.041, 590 610.041, 594.655 613.271 C 597.215 615.047, 602.104 618.862, 605.518 621.750 C 608.932 624.638, 611.998 627, 612.331 627 C 613.495 627, 624.543 618.888, 629.775 614.192 C 635.051 609.457, 635.051 609.457, 635.013 497.847 C 634.975 386.237, 634.975 386.237, 647.738 385.644 C 673.982 384.423, 689.721 383.290, 690.947 382.533 C 691.642 382.103, 696.326 381.370, 701.356 380.905 C 706.385 380.439, 714.325 379.563, 719 378.958 C 723.675 378.353, 730.650 377.492, 734.500 377.044 C 746.407 375.660, 755.412 373.988, 756.428 372.972 C 756.963 372.437, 757.688 372, 758.040 372 C 758.851 372, 760.529 377.767, 761.966 385.500 C 762.580 388.800, 763.555 393.300, 764.134 395.500 C 767.605 408.699, 770.755 442.067, 771.622 474.832 C 772.282 499.770, 772.584 501.387, 776.250 499.607 C 776.938 499.273, 783.800 494.476, 791.500 488.947 C 799.200 483.419, 808.068 477.231, 811.207 475.198 C 816.913 471.500, 816.913 471.500, 816.372 457.500 C 816.074 449.800, 815.387 440.125, 814.845 436 C 814.304 431.875, 813.446 424.450, 812.938 419.500 C 812.431 414.550, 811.558 407.350, 810.999 403.500 C 810.439 399.650, 809.589 393.800, 809.111 390.500 C 808.633 387.200, 807.463 381.350, 806.512 377.500 C 805.561 373.650, 804.560 368.813, 804.287 366.750 C 803.838 363.366, 804.013 363, 806.074 363 C 807.330 363, 809.852 362.550, 811.679 362 C 813.506 361.450, 816.462 360.608, 818.250 360.129 C 827.571 357.632, 849.910 350.416, 865 345.027 C 875.784 341.177, 897.411 332.212, 903 329.276 C 905.308 328.063, 905.707 328.206, 908.205 331.139 C 909.692 332.886, 912.114 337.282, 913.587 340.908 C 915.060 344.533, 916.903 349.075, 917.681 351 C 918.460 352.925, 919.525 355.281, 920.048 356.236 C 920.572 357.191, 921 358.707, 921 359.605 C 921 360.503, 921.890 363.997, 922.978 367.369 C 924.065 370.741, 925.573 376.200, 926.328 379.500 C 927.941 386.551, 929.800 387.524, 933.990 383.509 C 935.526 382.038, 938.803 379.409, 941.273 377.667 C 943.742 375.925, 949.529 371.667, 954.131 368.206 C 958.734 364.744, 963.531 361.144, 964.791 360.206 C 966.878 358.651, 966.997 358.101, 966.133 354 C 965.612 351.525, 963.978 346.350, 962.502 342.500 C 961.026 338.650, 959.429 334.221, 958.952 332.657 C 957.112 326.615, 943.741 300.997, 937.121 290.827 C 922.980 269.103, 910.107 253.376, 891.770 235.423 C 873.343 217.380, 857.570 204.049, 843.829 194.905 C 841.842 193.582, 836.356 189.931, 831.638 186.792 C 818.122 177.798, 786.017 160.191, 775.500 156.003 C 774.400 155.565, 770.900 154.035, 767.723 152.603 C 764.545 151.172, 761.309 150, 760.532 150 C 759.754 150, 758.840 149.550, 758.500 149 C 758.160 148.450, 757.002 148, 755.927 148 C 754.852 148, 753.191 147.567, 752.236 147.038 C 749.581 145.568, 730.460 139, 728.834 139 C 728.045 139, 726.973 138.642, 726.450 138.205 C 725.611 137.503, 719.783 135.611, 710.500 133.025 C 708.850 132.565, 704.350 131.661, 700.500 131.016 C 696.650 130.371, 691.700 129.366, 689.500 128.784 C 685.536 127.735, 678.876 126.811, 661.500 124.898 C 650.010 123.633, 572.318 122.846, 569 123.961 M 584.873 168.273 C 573.124 179.006, 560.239 190.287, 558.826 191.078 C 557.206 191.984, 537.557 213.522, 527.639 225.264 C 519.259 235.185, 508.229 252.072, 502.325 264.024 C 496.811 275.184, 493 283.589, 493 284.588 C 493 284.923, 492.364 286.616, 491.587 288.349 C 490.170 291.511, 487.212 299.602, 484.404 308 C 483.576 310.475, 482.538 313.400, 482.097 314.500 C 480.303 318.970, 477.788 326.592, 477.648 327.978 C 477.494 329.516, 479.935 330.129, 493.138 331.869 C 496.789 332.350, 500.341 333.093, 501.030 333.519 C 503.871 335.274, 543.599 339.027, 576.250 340.624 C 590 341.297, 590 341.297, 590 252.648 C 590 203.892, 589.888 164.010, 589.750 164.023 C 589.612 164.036, 587.418 165.948, 584.873 168.273 M 635.016 253.037 C 634.970 341.277, 634.970 341.277, 651.735 340.652 C 670.956 339.935, 689.480 338.421, 714.500 335.520 C 719.091 334.988, 728.017 333.302, 738.764 330.938 C 741.110 330.422, 743.874 330, 744.907 330 C 748.509 330, 748.198 326.308, 743.878 317.764 C 743.395 316.809, 743 315.541, 743 314.947 C 743 313.506, 734.419 288.821, 731.720 282.500 C 723.576 263.421, 709.427 239.190, 700.708 229.392 C 698.314 226.701, 694.402 221.832, 692.014 218.572 C 682.913 206.142, 654.485 179.103, 636.897 166.149 C 635.121 164.841, 635.061 167.631, 635.016 253.037 M 727.685 190.118 C 740.514 206.463, 750.986 222.268, 760.431 239.539 C 764.594 247.151, 768 253.508, 768 253.665 C 768 253.822, 769.389 256.999, 771.087 260.725 C 775.409 270.209, 776.589 272.992, 777.984 277 C 778.654 278.925, 779.570 281.400, 780.021 282.500 C 781.866 287.008, 785.926 299.052, 788.447 307.500 C 789.924 312.450, 791.314 317.063, 791.535 317.750 C 792.080 319.444, 792.221 319.425, 805.146 315.930 C 811.391 314.241, 817.625 312.632, 819 312.354 C 820.375 312.077, 822.400 311.440, 823.500 310.940 C 824.600 310.440, 830.900 308.260, 837.500 306.096 C 848.661 302.435, 851.764 301.275, 861 297.305 C 867.223 294.631, 874.453 290.971, 876.347 289.536 C 878.089 288.217, 877.852 287.691, 872.186 280.319 C 861.798 266.800, 841.223 247.881, 821.500 233.713 C 803.981 221.129, 771.330 203.414, 749.500 194.651 C 742.900 192.002, 736.719 189.422, 735.764 188.917 C 734.809 188.413, 733.211 188, 732.214 188 C 731.216 188, 729.972 187.635, 729.450 187.190 C 728.928 186.744, 727.233 185.841, 725.685 185.182 C 723.065 184.066, 723.202 184.406, 727.685 190.118 M 494 188.001 C 457.627 200.997, 414.111 226.376, 387.600 250.055 C 384.795 252.560, 379.569 256.901, 375.986 259.703 C 369.883 264.475, 364.428 270.220, 352.550 284.385 C 347.615 290.270, 347.615 290.270, 349.840 292.072 C 351.064 293.063, 357.563 295.970, 364.283 298.533 C 371.002 301.096, 377.400 303.546, 378.500 303.978 C 380.915 304.926, 403.283 311.931, 407.500 313.061 C 409.150 313.503, 412.300 314.303, 414.500 314.840 C 416.700 315.376, 421.015 316.531, 424.088 317.407 C 431.688 319.573, 433 319.469, 433 316.700 C 433 315.435, 433.387 313.973, 433.860 313.450 C 434.333 312.928, 435.520 310.025, 436.497 307 C 437.474 303.975, 438.616 300.600, 439.034 299.500 C 457.622 250.643, 472.098 223.731, 495.855 193.865 C 499.350 189.471, 502.050 185.751, 501.855 185.599 C 501.660 185.446, 498.125 186.527, 494 188.001 M 187.996 349.750 C 187.994 350.163, 187.991 471.903, 187.989 620.284 C 187.985 890.067, 187.985 890.067, 192.267 896.284 C 200.661 908.469, 209.618 920.342, 217.500 929.731 C 221.900 934.972, 226.907 941.114, 228.626 943.380 C 233.496 949.799, 276.612 992.611, 284.467 998.827 C 288.335 1001.888, 291.725 1004.690, 292 1005.054 C 293.006 1006.383, 305.377 1016.585, 309.518 1019.500 C 315.417 1023.652, 333.673 1037.228, 338.410 1040.984 C 340.560 1042.690, 343.035 1043.947, 343.910 1043.778 C 345.358 1043.499, 345.478 1026.640, 345.251 855.236 C 345.114 751.706, 345.233 667, 345.515 667 C 345.797 667, 348.433 668.913, 351.372 671.250 C 360.222 678.288, 376.238 690.769, 380.500 693.949 C 382.700 695.590, 388.134 699.761, 392.577 703.217 C 404.525 712.512, 415.780 721.169, 419.599 724 C 421.453 725.375, 427.303 729.875, 432.599 734 C 437.895 738.125, 443.693 742.625, 445.484 744 C 447.274 745.375, 453.986 750.550, 460.398 755.500 C 466.810 760.450, 474.713 766.525, 477.961 769 C 481.209 771.475, 490.005 778.225, 497.508 784 C 517.133 799.105, 530.846 809.559, 535.904 813.269 C 538.326 815.046, 542.826 818.559, 545.904 821.075 C 548.982 823.592, 553.525 827.082, 556 828.831 C 558.475 830.580, 562.750 833.806, 565.500 836 C 568.250 838.194, 572.525 841.423, 575 843.176 C 577.475 844.929, 582.200 848.683, 585.500 851.519 C 588.800 854.354, 593.975 858.549, 597 860.841 C 600.025 863.132, 604.925 866.866, 607.888 869.137 C 613.277 873.268, 613.277 873.268, 616.388 871.460 C 618.100 870.465, 622.200 867.331, 625.500 864.494 C 628.800 861.658, 633.354 858.024, 635.619 856.419 C 637.885 854.813, 642.329 851.475, 645.496 849 C 648.663 846.525, 653.379 842.925, 655.976 841 C 658.574 839.075, 664.929 834.235, 670.099 830.244 C 675.270 826.253, 683.100 820.274, 687.500 816.958 C 699.126 808.197, 704.750 803.889, 708.984 800.500 C 711.046 798.850, 716.956 794.254, 722.117 790.286 C 739.869 776.638, 764.992 757.214, 773.341 750.681 C 782.760 743.312, 789.774 737.807, 793.955 734.500 C 796.042 732.850, 800.618 729.287, 804.124 726.582 C 815.572 717.751, 818.349 715.581, 825.975 709.500 C 830.114 706.200, 837.906 700.125, 843.292 696 C 848.677 691.875, 857.002 685.452, 861.792 681.727 C 870.795 674.725, 878.777 669, 879.535 669 C 879.774 669, 879.972 753.261, 879.976 856.247 C 879.980 965.552, 880.356 1043.619, 880.879 1043.793 C 881.371 1043.957, 884.707 1041.933, 888.292 1039.296 C 891.877 1036.658, 898.274 1032.025, 902.508 1029 C 925.908 1012.282, 953.513 988.442, 974.500 966.829 C 997.627 943.011, 1011.710 925.721, 1029.470 899.343 C 1036.982 888.185, 1036.982 888.185, 1037.009 619.349 C 1037.027 442.231, 1036.698 350.399, 1036.043 350.181 C 1034.970 349.823, 1024.580 357.330, 997.110 378.312 C 992.924 381.509, 987.700 385.455, 985.500 387.080 C 983.300 388.706, 977.225 393.379, 972 397.466 C 959.772 407.030, 941.720 420.997, 936.142 425.209 C 933.746 427.019, 930.070 429.850, 927.974 431.500 C 925.878 433.150, 919.823 437.650, 914.517 441.500 C 909.211 445.350, 901.412 451.237, 897.185 454.582 C 892.958 457.927, 887.870 461.752, 885.878 463.082 C 883.887 464.412, 879.655 467.525, 876.476 470 C 873.296 472.475, 868.820 475.850, 866.530 477.500 C 864.240 479.150, 859.535 482.750, 856.075 485.500 C 848.656 491.396, 839.863 498.215, 833.827 502.753 C 831.447 504.542, 825.450 509.137, 820.500 512.965 C 811.897 519.617, 800.175 528.477, 790.024 536 C 787.427 537.925, 781.071 542.734, 775.901 546.687 C 770.730 550.640, 764.250 555.593, 761.500 557.693 C 758.750 559.794, 755.150 562.382, 753.500 563.443 C 751.850 564.505, 747.690 567.757, 744.255 570.671 C 740.821 573.585, 736.321 577.103, 734.255 578.489 C 732.190 579.876, 728.475 582.575, 726 584.488 C 723.525 586.401, 719.204 589.662, 716.398 591.733 C 713.592 593.805, 706.891 598.875, 701.506 603 C 687.484 613.742, 685.670 615.105, 680.309 618.940 C 677.664 620.832, 672.367 624.882, 668.538 627.940 C 664.709 630.998, 660.581 634.175, 659.365 635 C 658.150 635.825, 648.300 643.250, 637.476 651.500 C 626.653 659.750, 616.928 667.128, 615.865 667.895 C 614.427 668.932, 613.363 669.024, 611.716 668.253 C 609.775 667.345, 590.870 653.512, 580.987 645.768 C 579.069 644.266, 574.303 640.666, 570.396 637.768 C 566.489 634.871, 558.896 629.125, 553.524 625 C 548.152 620.875, 542.054 616.347, 539.974 614.937 C 537.893 613.528, 534.596 611.053, 532.648 609.437 C 530.699 607.822, 527.394 605.264, 525.303 603.752 C 523.211 602.241, 517.767 598.071, 513.204 594.486 C 508.641 590.901, 503.241 586.854, 501.204 585.493 C 499.167 584.132, 495.250 581.210, 492.500 579 C 489.750 576.790, 485.700 573.795, 483.500 572.344 C 481.300 570.893, 477.025 567.588, 474 565 C 470.975 562.412, 466.700 559.106, 464.500 557.654 C 460.421 554.961, 448.290 545.749, 437.500 537.151 C 434.200 534.522, 429.475 530.928, 427 529.165 C 424.525 527.403, 420.475 524.403, 418 522.500 C 415.525 520.597, 411.475 517.599, 409 515.838 C 406.525 514.078, 402.250 510.768, 399.500 508.484 C 396.750 506.200, 392.638 503.019, 390.363 501.415 C 385.488 497.980, 372.886 488.518, 360.509 479 C 345.515 467.469, 336.922 460.903, 332.372 457.500 C 329.431 455.300, 319.976 448.100, 311.361 441.500 C 302.746 434.900, 290.703 425.747, 284.598 421.161 C 278.494 416.574, 269.056 409.374, 263.625 405.161 C 258.193 400.947, 249.976 394.575, 245.365 391 C 240.754 387.425, 234.482 382.700, 231.428 380.500 C 228.373 378.300, 224.133 375.150, 222.005 373.500 C 219.876 371.850, 214.167 367.465, 209.318 363.756 C 204.468 360.047, 198.151 355.210, 195.279 353.006 C 190.267 349.160, 188.004 348.148, 187.996 349.750 M 820.393 796.273 C 817.585 798.598, 813.396 801.850, 811.084 803.500 C 803.256 809.088, 792.741 816.916, 781.247 825.714 C 777.808 828.346, 772.819 832.075, 770.160 834 C 764.532 838.075, 751.306 847.937, 742 854.998 C 738.425 857.710, 730.550 863.567, 724.500 868.014 C 718.450 872.460, 710.575 878.321, 707 881.037 C 695.534 889.750, 683.846 898.416, 679.400 901.500 C 677.021 903.150, 672.696 906.331, 669.788 908.568 C 666.879 910.806, 660.225 915.794, 655 919.654 C 649.775 923.514, 638.163 932.146, 629.196 938.836 C 620.229 945.526, 612.182 951, 611.312 951 C 610.443 951, 604.576 947.063, 598.274 942.250 C 591.972 937.438, 584.670 931.925, 582.047 930 C 567.911 919.625, 559.138 913.026, 554.114 908.990 C 551.026 906.510, 546.700 903.245, 544.500 901.736 C 542.300 900.227, 538.475 897.421, 536 895.501 C 533.525 893.581, 529.700 890.813, 527.500 889.350 C 525.300 887.887, 521.250 884.807, 518.500 882.506 C 515.750 880.205, 511.475 876.897, 509 875.156 C 506.525 873.414, 502.250 870.187, 499.500 867.985 C 496.750 865.783, 492.703 862.786, 490.506 861.324 C 488.310 859.863, 483.983 856.604, 480.892 854.084 C 475.593 849.761, 462.862 840.176, 453.555 833.500 C 451.255 831.850, 447.196 828.700, 444.537 826.500 C 441.877 824.300, 437.788 821.150, 435.451 819.500 C 427.534 813.911, 413.851 803.525, 407.316 798.144 C 402.702 794.346, 400.501 793.099, 399.743 793.857 C 398.437 795.163, 397.155 865.641, 397.064 941.161 C 397 993.823, 397 993.823, 402.432 997.661 C 413.189 1005.264, 433.181 1019.780, 443.161 1027.235 C 446.648 1029.839, 451.525 1033.432, 454 1035.219 C 456.475 1037.006, 460.075 1039.712, 462 1041.232 C 463.925 1042.753, 474.050 1050.318, 484.500 1058.043 C 494.950 1065.769, 507.325 1074.991, 512 1078.538 C 516.675 1082.085, 527.700 1090.356, 536.500 1096.919 C 559.144 1113.807, 574.166 1125.054, 584 1132.483 C 611.912 1153.569, 613.072 1154.310, 614.514 1151.978 C 614.861 1151.416, 618.825 1148.250, 623.323 1144.943 C 627.820 1141.636, 635.100 1136.203, 639.500 1132.870 C 643.900 1129.536, 659.875 1117.614, 675 1106.377 C 690.125 1095.140, 706.100 1083.241, 710.500 1079.934 C 714.900 1076.628, 723 1070.588, 728.500 1066.513 C 734 1062.437, 742.100 1056.396, 746.500 1053.088 C 763.633 1040.207, 783.045 1025.956, 795 1017.482 C 810.939 1006.185, 826.430 994.449, 827.595 992.789 C 828.883 990.955, 827.799 792.759, 826.500 792.356 C 825.950 792.186, 823.202 793.948, 820.393 796.273" stroke="none" fill="#033a7b" fill-rule="evenodd"/></svg>